<?xml version="1.0" encoding="UTF-8"?>
<svg version="1.1" xmlns="http://www.w3.org/2000/svg" width="250" height="250">
<path d="M0 0 C82.5 0 165 0 250 0 C250 82.5 250 165 250 250 C167.5 250 85 250 0 250 C0 167.5 0 85 0 0 Z " fill="#F5F7F7" transform="translate(0,0)"/>
<path d="M0 0 C82.5 0 165 0 250 0 C250 82.5 250 165 250 250 C167.5 250 85 250 0 250 C0 167.5 0 85 0 0 Z M120.55859375 10.45703125 C119.72779297 10.99263672 118.89699219 11.52824219 118.04101562 12.08007812 C117.18185547 12.65177734 116.32269531 13.22347656 115.4375 13.8125 C114.57447266 14.37259766 113.71144531 14.93269531 112.82226562 15.50976562 C109.53216115 17.64948392 106.26551515 19.8229899 103 22 C100.45823182 22.13290412 98.0178727 22.15732576 95.48046875 22.09765625 C93.96810316 22.09359095 92.45573043 22.09170682 90.94335938 22.09179688 C88.56564357 22.0837019 86.19124344 22.06259281 83.81420898 22.00366211 C74.76933688 21.48106291 74.76933688 21.48106291 66.7421875 24.75830078 C65.13156884 27.11051759 64.04852508 29.35235214 63 32 C62.29452063 33.45833329 61.57862618 34.91168183 60.8515625 36.359375 C60.49771484 37.07673828 60.14386719 37.79410156 59.77929688 38.53320312 C53.22567348 51.11926497 42.94199499 56.12947531 30.36914062 61.86523438 C27.8223194 63.01673311 27.8223194 63.01673311 25 65 C24.72008459 68.04347804 24.72008459 68.04347804 24.98046875 71.640625 C25.0224411 73.02557731 25.05934537 74.41069033 25.09179688 75.79589844 C25.10976318 76.52353394 25.12772949 77.25116943 25.14624023 78.00085449 C25.44752106 94.42422487 22.19603234 105.04430449 11.3828125 117.93652344 C9.74894514 120.37463201 9.21191965 122.07550889 9 125 C9.69985438 127.10387429 9.69985438 127.10387429 10.984375 129.03125 C11.64566406 130.12373047 11.64566406 130.12373047 12.3203125 131.23828125 C12.79210937 131.98464844 13.26390625 132.73101562 13.75 133.5 C14.43449219 134.61955078 14.43449219 134.61955078 15.1328125 135.76171875 C15.99048674 137.16225617 16.85406582 138.5592082 17.72558594 139.95117188 C18.14614258 140.62728516 18.56669922 141.30339844 19 142 C19.81428467 143.12353882 19.81428467 143.12353882 20.64501953 144.26977539 C22.39678554 147.79950499 22.31531771 150.87420672 22.1953125 154.71484375 C22.18834369 156.22069601 22.1831913 157.72655757 22.1796875 159.23242188 C22.15905654 161.58803496 22.1249054 163.9408593 22.05859375 166.2956543 C21.49621801 175.29039043 21.49621801 175.29039043 24.7890625 183.23583984 C27.12668361 184.80742972 29.40701977 185.90890975 32 187 C33.34181443 187.80575497 34.67106737 188.63294674 35.984375 189.484375 C37.23821654 190.2418504 38.49340891 190.99709469 39.75 191.75 C40.38292969 192.13542969 41.01585937 192.52085937 41.66796875 192.91796875 C44.35064862 194.52980759 46.85470762 195.95103406 49.828125 196.953125 C52.82092932 198.39569974 52.91658675 199.91517522 54 203 C54.26039062 203.81823242 54.52078125 204.63646484 54.7890625 205.47949219 C57.09460535 212.56041761 59.85701714 219.47626937 66 224 C73.15123694 225.83408194 80.31476933 225.58292159 87.63671875 225.09667969 C95.82604202 224.58254821 101.30422912 224.54324203 107.90722656 230.11181641 C108.5978418 230.73491699 109.28845703 231.35801758 110 232 C111.27145571 232.91882785 112.55819457 233.81710181 113.86328125 234.6875 C114.72856445 235.26951172 114.72856445 235.26951172 115.61132812 235.86328125 C116.17271484 236.23839844 116.73410156 236.61351562 117.3125 237 C117.89322266 237.40605469 118.47394531 237.81210938 119.07226562 238.23046875 C121.68732146 239.96201984 123.44964896 241.01144861 126.62890625 240.9453125 C129.29886689 239.88084714 131.3202069 238.5939594 133.625 236.875 C135.39994528 235.56045008 137.19592134 234.27427328 139 233 C140.08099976 232.10933838 140.08099976 232.10933838 141.18383789 231.20068359 C150.1026144 224.50589975 158.89747019 225.33690476 169.47436523 226.0234375 C174.55623529 226.32028463 179.07032887 226.38489794 184 225 C189.50276813 219.53105735 191.75854538 212.62206775 194.5625 205.5 C199.46990955 195.94101741 210.3090192 191.91653823 219.5456543 187.32763672 C223.02878678 185.50803946 223.02878678 185.50803946 226 183 C226.48343045 179.90354169 226.48343045 179.90354169 226.2578125 176.33984375 C226.23534202 174.98287191 226.21575866 173.62584987 226.19873047 172.26879883 C226.17815582 171.20648544 226.17815582 171.20648544 226.15716553 170.12271118 C225.94168429 155.48368494 228.031855 144.90650058 237 133 C239.30682843 129.91306154 239.99404882 128.62115452 240.03125 124.73828125 C238.92389546 120.72412102 237.2955663 118.09272555 235.05004883 114.64135742 C225.466901 99.47042991 226.48557791 83.32798178 227 66 C224.80165706 64.8914614 222.60230346 63.78500942 220.40234375 62.6796875 C219.481651 62.21502075 219.481651 62.21502075 218.5423584 61.7409668 C215.55661166 60.24267912 212.57137749 58.80969136 209.51660156 57.45336914 C197.57681006 52.08441 192.26873394 39.2576377 186.28417969 28.28149414 C185.19293039 26.10314343 185.19293039 26.10314343 184 25 C181.90262257 25.02554523 179.80590911 25.10731036 177.7109375 25.2109375 C158.49270322 25.81168487 146.36164677 23.24910245 131.05761719 10.47460938 C126.86096666 7.46704303 124.82846397 7.65974976 120.55859375 10.45703125 Z " fill="#FDFEFE" transform="translate(0,0)"/>
<path d="M0 0 C17.9428417 14.78623066 31.9651969 34.96861778 35.1184082 58.52124023 C35.54986143 63.33669244 35.49713972 68.16898795 35.5 73 C35.51224609 74.07701172 35.52449219 75.15402344 35.53710938 76.26367188 C35.5817074 100.80744915 24.746341 123.05674914 7.875 140.5 C-7.32768254 155.17627387 -30.51301692 167.04605456 -52.125 166.75 C-52.98996094 166.74097656 -53.85492188 166.73195312 -54.74609375 166.72265625 C-55.70708984 166.70525391 -55.70708984 166.70525391 -56.6875 166.6875 C-56.6875 166.0275 -56.6875 165.3675 -56.6875 164.6875 C-55.10525101 163.60158387 -53.46829588 162.5950854 -51.8125 161.625 C-36.89060565 152.28925071 -26.98634718 139.8606149 -22.6875 122.6875 C-22.51452393 122.02427734 -22.34154785 121.36105469 -22.16333008 120.67773438 C-20.77640075 115.01841792 -20.26660974 109.63213812 -20.25 103.8125 C-20.24613281 102.81637695 -20.24226562 101.82025391 -20.23828125 100.79394531 C-20.39125217 89.91707544 -21.83263086 79.21669319 -23.1875 68.4375 C-24.75582089 55.88659154 -26.19386414 43.47464387 -26.25 30.8125 C-26.26417969 29.75256836 -26.27835937 28.69263672 -26.29296875 27.60058594 C-26.14788056 16.34536935 -22.66533259 6.16873447 -16.6875 -3.3125 C-37.8834131 0.62988432 -37.8834131 0.62988432 -54.0625 13.9375 C-59.40152818 22.80146668 -60.44839926 32.57060693 -61.6875 42.6875 C-64.33228907 41.66654981 -66.7044858 40.6770472 -69.125 39.1875 C-74.74899017 35.89540819 -79.72025876 35.41340572 -86.0625 35.5625 C-86.79855469 35.57152344 -87.53460938 35.58054688 -88.29296875 35.58984375 C-90.0912888 35.61319856 -91.88943911 35.64906164 -93.6875 35.6875 C-96.54997934 41.41245868 -95.40734399 51.61642644 -93.96875 57.75390625 C-91.88964644 63.11095132 -88.88311296 67.93048817 -85.6875 72.6875 C-86.91726562 72.85765625 -88.14703125 73.0278125 -89.4140625 73.203125 C-91.04699332 73.44712616 -92.67979955 73.6919621 -94.3125 73.9375 C-95.52486328 74.10185547 -95.52486328 74.10185547 -96.76171875 74.26953125 C-103.17851159 75.26074315 -107.2383625 77.43171546 -112.0625 81.875 C-114.38142896 85.8885309 -114.55193952 89.16282108 -113.6875 93.6875 C-111.00751162 100.32686819 -104.86642527 103.68438881 -98.6875 106.6875 C-96.3386307 107.55791433 -94.14177044 108.15396295 -91.6875 108.6875 C-92.98671192 111.45591418 -94.48334745 113.74862993 -96.3125 116.1875 C-99.61686156 121.44890903 -99.68218803 126.66134833 -98.6875 132.6875 C-97.22717927 136.76909643 -95.12984129 138.90513184 -91.33984375 140.9609375 C-86.89025004 142.85352487 -82.51670152 144.179163 -77.6875 144.6875 C-77.77 143.65625 -77.8525 142.625 -77.9375 141.5625 C-77.64553692 137.0370723 -76.51842283 135.16549091 -73.6875 131.6875 C-69.96340181 129.20476787 -67.00261656 129.0382531 -62.6875 129.6875 C-58.52099229 131.288099 -54.63164539 133.57048622 -52.6875 137.6875 C-52.1695444 142.27510673 -52.15902191 144.6085239 -54.1875 148.75 C-60.90152185 156.63897567 -66.89879031 160.76027266 -77.3125 162 C-95.94586447 162.86666811 -111.24106357 151.35627017 -124.75 139.9453125 C-139.42866878 126.28599572 -150.70949504 103.86334172 -151.84863281 83.85766602 C-152.2703694 54.56904067 -147.28126024 31.18276152 -126.44140625 9.47265625 C-92.10151092 -25.25691166 -39.41503028 -29.29780326 0 0 Z " fill="#265AA4" transform="translate(182.6875,51.3125)"/>
<path d="M0 0 C2.46774168 1.35824425 4.50802268 2.81240593 6.68017578 4.60107422 C19.71960048 14.55513941 29.73742561 16.9336833 45.71264648 15.94311523 C55.45087282 15.52667596 55.45087282 15.52667596 58.61401367 18.08398438 C60.23526787 20.44630312 61.38707822 22.74257412 62.50439453 25.37841797 C63.22448007 26.83541348 63.95211734 28.28870599 64.68798828 29.73779297 C65.22649414 30.81395874 65.22649414 30.81395874 65.77587891 31.91186523 C72.75303777 45.17518711 85.46261531 52.6978249 99.50439453 57.37841797 C99.4718457 58.28793213 99.43929687 59.19744629 99.40576172 60.13452148 C98.89386664 79.10693186 99.4416669 93.39638929 110.01220703 109.85888672 C111.89844047 112.95610247 112.49361063 114.22013814 112.74658203 117.93310547 C111.37285691 121.74324874 109.51147704 124.53946028 107.20068359 127.83740234 C99.11976076 139.64476109 98.26796839 149.76631408 98.95361328 163.62426758 C99.33537868 173.31152819 99.33537868 173.31152819 97.03466797 176.26538086 C94.90953943 177.64038649 92.88117134 178.51319215 90.50439453 179.37841797 C88.99284399 180.07178676 87.48762826 180.7791175 85.98876953 181.49951172 C84.83248047 182.05046509 84.83248047 182.05046509 83.65283203 182.61254883 C71.21489396 188.85304117 66.14844408 197.59127121 60.64501953 210.0793457 C58.42134926 214.5614311 58.42134926 214.5614311 56.50439453 216.37841797 C53.9487135 216.69640948 51.80974596 216.77176643 49.26611328 216.67138672 C47.79021073 216.66149107 46.31429764 216.65307894 44.83837891 216.64599609 C42.5318156 216.61319445 40.22770641 216.56708512 37.92211914 216.49194336 C25.47168216 216.1335893 18.29338356 218.72685168 8.50439453 226.37841797 C6.81982966 227.59083988 5.13301612 228.80015845 3.44189453 230.00341797 C2.79091797 230.49068359 2.13994141 230.97794922 1.46923828 231.47998047 C-1.35209954 232.77005542 -2.56407562 232.39918088 -5.49560547 231.37841797 C-8.05798562 229.94052493 -10.45883324 228.30406695 -12.87060547 226.62841797 C-13.82193359 225.98259766 -13.82193359 225.98259766 -14.79248047 225.32373047 C-15.73994141 224.67791016 -15.73994141 224.67791016 -16.70654297 224.01904297 C-17.35034912 223.58849609 -17.99415527 223.15794922 -18.6574707 222.71435547 C-20.49560547 221.37841797 -20.49560547 221.37841797 -21.94506836 219.91748047 C-24.9247064 217.10988601 -26.88257269 216.40393987 -31.03759766 216.23095703 C-33.89265507 216.322692 -36.7431561 216.49252239 -39.59521484 216.65087891 C-58.37893852 217.67249929 -58.37893852 217.67249929 -64.22070312 213.37255859 C-69.47001025 207.04176038 -71.9997242 199.47885471 -74.28466797 191.68798828 C-75.88710858 188.6317205 -77.26639349 188.42184998 -80.49560547 187.37841797 C-82.25707127 186.42119838 -83.99995119 185.4292416 -85.72607422 184.40966797 C-86.69351563 183.83861328 -87.66095703 183.26755859 -88.65771484 182.67919922 C-89.65609375 182.08494141 -90.65447266 181.49068359 -91.68310547 180.87841797 C-92.69308594 180.28416016 -93.70306641 179.68990234 -94.74365234 179.07763672 C-102.23763903 174.63638441 -102.23763903 174.63638441 -104.49560547 172.37841797 C-104.6081543 169.37939453 -104.6081543 169.37939453 -104.45263672 165.51904297 C-104.01692699 146.75079508 -105.20199784 133.70673381 -117.43164062 118.42602539 C-118.49560547 116.37841797 -118.49560547 116.37841797 -118.33081055 113.90551758 C-117.45052652 111.24202155 -116.363712 109.19394343 -114.84326172 106.83935547 C-114.31410156 106.01177734 -113.78494141 105.18419922 -113.23974609 104.33154297 C-112.40733398 103.05537109 -112.40733398 103.05537109 -111.55810547 101.75341797 C-111.00703125 100.89490234 -110.45595703 100.03638672 -109.88818359 99.15185547 C-107.78236646 95.87670852 -105.65546596 92.6182087 -103.49560547 89.37841797 C-103.53733912 86.10456871 -103.53733912 86.10456871 -103.96044922 82.35888672 C-105.55104304 59.97709907 -105.55104304 59.97709907 -100.06787109 53.51904297 C-94.03768479 48.98773365 -87.32546966 46.06755711 -80.22875977 43.59399414 C-75.28504937 41.39526845 -72.9680464 37.82768381 -70.33154297 33.24560547 C-69.76693359 32.27494141 -69.20232422 31.30427734 -68.62060547 30.30419922 C-68.04310547 29.29744141 -67.46560547 28.29068359 -66.87060547 27.25341797 C-65.71445397 25.24925227 -64.55572258 23.24657196 -63.39404297 21.24560547 C-62.88534668 20.3598584 -62.37665039 19.47411133 -61.85253906 18.56152344 C-60.49560547 16.37841797 -60.49560547 16.37841797 -58.49560547 14.37841797 C-55.49658203 14.28173828 -55.49658203 14.28173828 -51.63623047 14.45654297 C-32.4442676 14.97655626 -19.69664498 13.60013118 -4.54321289 0.4206543 C-2.49560547 -0.62158203 -2.49560547 -0.62158203 0 0 Z M-45.49560547 27.37841797 C-46.61193359 27.94302734 -47.72826172 28.50763672 -48.87841797 29.08935547 C-57.73005135 33.769403 -65.12208182 39.64386542 -72.49560547 46.37841797 C-73.19556641 47.00748047 -73.89552734 47.63654297 -74.61669922 48.28466797 C-87.25785353 60.22197181 -95.6088589 77.61415392 -99.49560547 94.37841797 C-99.66624512 95.08812744 -99.83688477 95.79783691 -100.01269531 96.52905273 C-104.59482237 117.0542745 -102.09983781 138.72970916 -92.49560547 157.37841797 C-92.11662109 158.20470703 -91.73763672 159.03099609 -91.34716797 159.88232422 C-88.18794933 166.65662191 -84.02093666 172.45193821 -79.49560547 178.37841797 C-78.96193359 179.14412109 -78.42826172 179.90982422 -77.87841797 180.69873047 C-77.42208984 181.25302734 -76.96576172 181.80732422 -76.49560547 182.37841797 C-75.83560547 182.37841797 -75.17560547 182.37841797 -74.49560547 182.37841797 C-74.26744141 182.94947266 -74.03927734 183.52052734 -73.80419922 184.10888672 C-66.14143073 197.39864341 -44.69545313 206.35641643 -30.61474609 210.81005859 C-21.31158174 213.305193 -12.07930866 213.69119332 -2.49560547 213.62841797 C-1.31482422 213.63615234 -0.13404297 213.64388672 1.08251953 213.65185547 C12.61500649 213.62645352 22.90202177 212.13762044 33.56689453 207.69091797 C34.4310498 207.33642578 35.29520508 206.98193359 36.18554688 206.61669922 C42.76967791 203.84286933 48.76631985 200.66548526 54.50439453 196.37841797 C55.36162109 195.74033203 56.21884766 195.10224609 57.10205078 194.44482422 C59.63249672 192.48687736 62.07967023 190.46547093 64.50439453 188.37841797 C65.50212891 187.52570313 65.50212891 187.52570313 66.52001953 186.65576172 C82.84818502 171.55552737 94.17833724 147.73375421 95.69482422 125.59887695 C95.7712679 122.7101496 95.77758847 119.83049625 95.75439453 116.94091797 C95.76212891 115.98121094 95.76986328 115.02150391 95.77783203 114.03271484 C95.70781713 88.03968191 84.24766955 64.88031435 66.75439453 46.19091797 C46.07641716 26.50946963 19.70026064 17.75454638 -8.40576172 18.09716797 C-21.30606067 18.50379678 -33.96706081 21.53603897 -45.49560547 27.37841797 Z " fill="#2A5DA5" transform="translate(127.49560546875,8.62158203125)"/>
<path d="M0 0 C11.05633683 0 19.50504065 8.83532699 27 16 C27.61617187 16.54140625 28.23234375 17.0828125 28.8671875 17.640625 C41.84204846 29.47943822 48.78771263 47.43166968 53 64 C53.26804443 64.92848755 53.26804443 64.92848755 53.54150391 65.87573242 C54.06529705 68.30252907 54.11279153 70.50218877 54.09765625 72.984375 C54.09443359 73.91894531 54.09121094 74.85351562 54.08789062 75.81640625 C54.07532227 77.26853516 54.07532227 77.26853516 54.0625 78.75 C54.05798828 79.73355469 54.05347656 80.71710938 54.04882812 81.73046875 C54.03706483 84.15370791 54.02062684 86.57682273 54 89 C53.01 88.505 53.01 88.505 52 88 C51.9175 86.741875 51.835 85.48375 51.75 84.1875 C49.87130344 64.69217338 30.34536743 48.4937496 16.3671875 36.796875 C8.82104809 30.28071005 2.49220435 22.9844087 -2 14 C-2.12199138 12.0027458 -2.17547512 10.00094019 -2.1875 8 C-2.20167969 6.9275 -2.21585937 5.855 -2.23046875 4.75 C-2 2 -2 2 0 0 Z " fill="#E5B244" transform="translate(94,90)"/>
<path d="M0 0 C-0.41588092 2.98047995 -0.85439685 5.64509232 -2 8.4375 C-7.09732409 21.49939299 -3.6842545 37.74877963 -1.51098633 51.06738281 C0.58612727 63.99815671 1.18666789 76.75033693 1.18530273 89.82446289 C1.18753239 92.22233773 1.20588988 94.61978163 1.22460938 97.01757812 C1.22753655 98.54687345 1.22952586 100.07617092 1.23046875 101.60546875 C1.23765427 102.31994675 1.24483978 103.03442474 1.25224304 103.77055359 C1.22888361 108.77111639 1.22888361 108.77111639 -1 111 C-1.23074219 109.87464844 -1.46148437 108.74929687 -1.69921875 107.58984375 C-4.77902288 92.93344811 -9.42082985 79.28094301 -15.04443359 65.42700195 C-23.47540097 44.55022529 -23.47540097 44.55022529 -25 34 C-25.16048828 32.95005859 -25.16048828 32.95005859 -25.32421875 31.87890625 C-25.9708062 23.81811599 -22.00938668 16.82324597 -17.13671875 10.6328125 C-12.97685265 6.21451784 -6.44298223 0 0 0 Z " fill="#E5B244" transform="translate(154,55)"/>
<path d="M0 0 C18.42430893 5.64092278 35.69665466 17.75726361 45.38574219 34.72802734 C48.28088505 40.36431611 49.23258595 44.38690122 49.17480469 50.68505859 C49.16578125 51.95736328 49.15675781 53.22966797 49.14746094 54.54052734 C49.13585937 55.51634766 49.12425781 56.49216797 49.11230469 57.49755859 C48.45230469 57.49755859 47.79230469 57.49755859 47.11230469 57.49755859 C47.01433594 56.86849609 46.91636719 56.23943359 46.81542969 55.59130859 C45.31741041 47.01643962 43.11157678 40.31108068 36.08496094 34.80615234 C28.03305455 29.4647887 18.50896607 27.01775893 9.02246094 25.82177734 C8.10368164 25.70455322 7.18490234 25.5873291 6.23828125 25.46655273 C4.40263604 25.24211468 2.56463086 25.0359968 0.72460938 24.85083008 C-6.79674513 23.95019896 -11.84842364 21.3088849 -17.38769531 16.18505859 C-19.40931836 12.56298396 -19.87403635 9.48175508 -18.88769531 5.49755859 C-14.9238277 -2.09316765 -7.49649423 -1.99531623 0 0 Z " fill="#E5B244" transform="translate(93.8876953125,130.50244140625)"/>
<path d="M0 0 C8.95106023 3.65193042 16.2233257 9.56586138 20.375 18.4375 C21.07996518 23.54849755 19.94805929 27.62000594 18.375 32.4375 C17.385 32.4375 16.395 32.4375 15.375 32.4375 C15.34921875 31.71304688 15.3234375 30.98859375 15.296875 30.2421875 C14.94704589 24.27919129 14.59612731 20.00088087 10.375 15.4375 C5.01741684 11.41931263 -1.21389818 11.79462853 -7.625 12.4375 C-12.40451721 14.05912191 -14.81433474 16.27355147 -17.625 20.4375 C-17.955 21.4275 -18.285 22.4175 -18.625 23.4375 C-22.82975835 23.24192984 -24.37086331 22.67506256 -27.5 19.75 C-29.85657858 16.07650985 -30.42208106 14.68859897 -29.625 10.4375 C-23.69502913 -1.93809138 -12.04482977 -3.85232684 0 0 Z " fill="#E5B245" transform="translate(117.625,163.5625)"/>
<path d="M0 0 C5.6291609 4.82499505 8.67206791 11.01620372 11 18 C11.06970052 20.39490986 11.08448003 22.79167691 11.0625 25.1875 C11.05347656 26.45980469 11.04445312 27.73210937 11.03515625 29.04296875 C11.02355469 30.01878906 11.01195312 30.99460938 11 32 C10.34 32 9.68 32 9 32 C8.90203125 31.3709375 8.8040625 30.741875 8.703125 30.09375 C6.95239013 20.0723021 4.06180188 14.23498963 -4 8 C-4.66 7.34 -5.32 6.68 -6 6 C-4.35 5.67 -2.7 5.34 -1 5 C-0.67 3.35 -0.34 1.7 0 0 Z " fill="#E6B853" transform="translate(132,156)"/>
<path d="M0 0 C2.52091985 0.37706066 3.72619559 0.70457946 5.484375 2.6015625 C8.39580678 7.25625899 9.71763056 10.36147414 9 16 C8.44206711 18.39114097 7.76372922 20.66107925 7 23 C6.01 23 5.02 23 4 23 C3.96132812 21.91332031 3.96132812 21.91332031 3.921875 20.8046875 C3.56893044 14.788587 3.11399798 10.70171197 -1 6 C-3.10575643 4.16699091 -3.10575643 4.16699091 -5 3 C-3.68 3 -2.36 3 -1 3 C-0.67 2.01 -0.34 1.02 0 0 Z " fill="#E5B54C" transform="translate(129,173)"/>
<path d="M0 0 C0.66 0 1.32 0 2 0 C2.21192221 5.19209404 1.5912689 9.126739 0 14 C-0.99 14 -1.98 14 -3 14 C-3 10.04 -3 6.08 -3 2 C-2.34 2 -1.68 2 -1 2 C-0.67 1.34 -0.34 0.68 0 0 Z " fill="#E7BC5C" transform="translate(136,182)"/>
<path d="M0 0 C-0.75 5.75 -0.75 5.75 -3 8 C-3 6.68 -3 5.36 -3 4 C-3.99 3.67 -4.98 3.34 -6 3 C-2.25 0 -2.25 0 0 0 Z " fill="#E6BA58" transform="translate(154,55)"/>
<path d="M0 0 C0 3 0 3 -2 5.1875 C-2.66 5.785625 -3.32 6.38375 -4 7 C-4.99 6.67 -5.98 6.34 -7 6 C-4.69 4.02 -2.38 2.04 0 0 Z " fill="#3765A7" transform="translate(67,51)"/>
</svg>
