<?xml version="1.0" encoding="UTF-8"?>
<svg version="1.1" xmlns="http://www.w3.org/2000/svg" width="505" height="512">
<path d="M0 0 C166.65 0 333.3 0 505 0 C505 168.96 505 337.92 505 512 C338.35 512 171.7 512 0 512 C0 343.04 0 174.08 0 0 Z M25 25 C25 177.46 25 329.92 25 487 C175.15 487 325.3 487 480 487 C480 411.43 480 335.86 480 258 C472.84756979 262.72623552 472.84756979 262.72623552 466.0625 267.8125 C462.19469027 270.90265487 462.19469027 270.90265487 460 272 C460 272.66 460 273.32 460 274 C459.28972656 274.2371875 458.57945312 274.474375 457.84765625 274.71875 C454.5245353 276.21392651 452.20160894 278.13186216 449.4375 280.5 C446.27354192 283.20318748 443.75098222 285.12450889 440 287 C440 340.13 440 393.26 440 448 C423.62375 448.04125 407.2475 448.0825 390.375 448.125 C385.2089209 448.16383301 380.0428418 448.20266602 374.72021484 448.24267578 C368.3996582 448.22436523 368.3996582 448.22436523 365.43838501 448.20309448 C363.37528182 448.19770227 361.31206914 448.21198175 359.24917603 448.24191284 C341.69371579 448.47502826 341.69371579 448.47502826 337.35186768 444.69378662 C335.85342114 442.14978705 334.93209147 439.7845505 334 437 C333.34 437 332.68 437 332 437 C331.62875 435.9171875 331.62875 435.9171875 331.25 434.8125 C329.88046785 431.73105265 328.14002978 429.5939755 326 427 C324.99781421 425.33464676 323.99829637 423.66768766 323 422 C321.35714745 419.48401557 319.6781476 416.99254275 318 414.5 C317.1238642 413.19868065 316.24883919 411.89661265 315.375 410.59375 C314.96378906 409.98144531 314.55257813 409.36914062 314.12890625 408.73828125 C313.13304086 407.2048553 312.21604729 405.62082394 311.3125 404.03125 C310.879375 403.3609375 310.44625 402.690625 310 402 C309.34 402 308.68 402 308 402 C307.7525 401.2575 307.505 400.515 307.25 399.75 C305.90852699 396.79875938 304.39094474 395.15185026 302 393 C301.5875 393.45375 301.175 393.9075 300.75 394.375 C298.93591905 396.05950374 297.24714373 396.99265971 295 398 C295 398.66 295 399.32 295 400 C294.278125 400.24878906 293.55625 400.49757813 292.8125 400.75390625 C289.7310493 402.1191601 287.57732003 403.77496741 285 405.9375 C282.51459534 408.01514296 280.15877994 409.90525185 277.375 411.56640625 C275.16578256 412.89993059 273.78753584 414.1762609 272 416 C270.12280496 417.4208003 268.22519365 418.81486103 266.3125 420.1875 C265.31863281 420.90292969 264.32476562 421.61835938 263.30078125 422.35546875 C262.54152344 422.89816406 261.78226563 423.44085938 261 424 C261.433125 424.391875 261.86625 424.78375 262.3125 425.1875 C264 427 264 427 265.3359375 429.23828125 C267.48155726 432.79920418 270.02632215 435.94930377 272.625 439.1875 C277.875 445.75 277.875 445.75 279 448 C210.03 448 141.06 448 70 448 C70 415.99 70 383.98 70 351 C71.65 350.34 73.3 349.68 75 349 C76.60411246 347.64594139 76.60411246 347.64594139 78 346 C81.65714286 342.11428571 81.65714286 342.11428571 85 341 C86.13545325 339.86454675 87.26678838 338.72472486 88.37890625 337.56640625 C91.11436466 334.92322836 94.14727915 332.65288542 97.1328125 330.30078125 C100.2699507 327.78337744 103.32262937 325.18122036 106.375 322.5625 C111.67256208 318.01846024 117.15651073 313.83758029 122.83203125 309.77734375 C123.54746094 309.19082031 124.26289062 308.60429687 125 308 C125 307.34 125 306.68 125 306 C125.639375 305.896875 126.27875 305.79375 126.9375 305.6875 C127.9584375 305.3471875 127.9584375 305.3471875 129 305 C129.33 304.01 129.66 303.02 130 302 C132.0625 300.8125 132.0625 300.8125 134 300 C133.18595703 299.11248047 133.18595703 299.11248047 132.35546875 298.20703125 C131.64003906 297.41683594 130.92460937 296.62664062 130.1875 295.8125 C129.47980469 295.03519531 128.77210938 294.25789063 128.04296875 293.45703125 C126 291 126 291 124.36328125 288.19921875 C123.91339844 287.47347656 123.46351562 286.74773437 123 286 C122.34 286 121.68 286 121 286 C120.75765625 285.28457031 120.5153125 284.56914062 120.265625 283.83203125 C118.82580519 280.61021224 117.03480694 278.37253673 114.75 275.6875 C111.00962541 271.22805501 107.43327753 266.69887787 104 262 C98.48606136 264.5884865 98.48606136 264.5884865 93.734375 268.296875 C91.2799122 270.70711325 88.54642983 272.73446106 85.8125 274.8125 C85.00329102 275.4322168 85.00329102 275.4322168 84.17773438 276.06445312 C79.8067972 279.40572312 75.40166069 282.69875449 71 286 C70.67 212.08 70.34 138.16 70 62 C88.52125 62 107.0425 62 126.125 62 C131.96977051 61.979375 137.81454102 61.95875 143.83642578 61.9375 C150.98217773 61.96484375 150.98217773 61.96484375 154.32907104 61.98779297 C156.66296689 61.9962564 158.99695239 61.9889861 161.33078003 61.96923828 C164.87033068 61.94235942 168.40638492 61.96565281 171.94580078 62 C172.98283709 61.9805835 174.01987339 61.96116699 175.08833504 61.94116211 C181.97625299 62.08089994 181.97625299 62.08089994 184.9584465 64.758255 C186.49491194 66.77665121 187.77931537 68.77930791 189 71 C189.52464844 71.83917969 190.04929688 72.67835937 190.58984375 73.54296875 C191.05519531 74.35378906 191.52054688 75.16460937 192 76 C193.49887324 78.45148103 195.02862022 80.88281441 196.5625 83.3125 C196.96146484 83.95767578 197.36042969 84.60285156 197.77148438 85.26757812 C198.79382852 86.88045829 199.89126229 88.44524256 201 90 C201.66 90 202.32 90 203 90 C203.4021875 91.0828125 203.4021875 91.0828125 203.8125 92.1875 C204.99901362 94.99766383 206.27485639 97.48416557 208 100 C208.66 100 209.32 100 210 100 C210.12955078 100.82371094 210.12955078 100.82371094 210.26171875 101.6640625 C211.23240942 104.73534831 212.87443585 106.80769424 214.8125 109.375 C217.65709428 113.19314526 220.40280453 117.01144981 223 121 C223.639375 121.94875 224.27875 122.8975 224.9375 123.875 C226.08638384 125.61573309 227.22036877 127.36750321 228.29296875 129.15625 C228.95232422 130.25453125 228.95232422 130.25453125 229.625 131.375 C230.02976563 132.06335938 230.43453125 132.75171875 230.8515625 133.4609375 C231.23054687 133.96882813 231.60953125 134.47671875 232 135 C232.66 135 233.32 135 234 135 C234.0825 135.7425 234.165 136.485 234.25 137.25 C235.16233719 140.59523636 236.49998645 141.64284437 239 144 C243 149.33333333 243 149.33333333 243 154 C240.5859375 156.21875 240.5859375 156.21875 237.375 158.5 C236.33085937 159.2528125 235.28671875 160.005625 234.2109375 160.78125 C232.0592742 162.2680441 229.8922324 163.73281063 227.7109375 165.17578125 C225.49000424 166.67027092 223.82669352 168.0819718 222 170 C221.34 170.33 220.68 170.66 220 171 C220 171.66 220 172.32 220 173 C219.46375 173.2475 218.9275 173.495 218.375 173.75 C215.4176018 175.30652537 212.70275949 177.03435673 210 179 C210 179.66 210 180.32 210 181 C209.1028125 181.1546875 209.1028125 181.1546875 208.1875 181.3125 C205.68462276 182.09911856 204.78685245 183.13545831 203 185 C202.01 185.33 201.02 185.66 200 186 C198.79117904 188.00016466 198.79117904 188.00016466 198 190 C203.80235572 198.49394278 209.63036887 206.96316423 215.64990234 215.30517578 C217.51272407 217.89177401 219.33008745 220.49543852 221.09765625 223.1484375 C222.6644844 225.49707108 224.27941692 227.76324199 226 230 C227.26457031 229.04287109 227.26457031 229.04287109 228.5546875 228.06640625 C229.66139468 227.23168643 230.76816901 226.39705563 231.875 225.5625 C232.43058594 225.14162109 232.98617187 224.72074219 233.55859375 224.28710938 C237.7734375 221.11328125 237.7734375 221.11328125 240 220 C240 219.34 240 218.68 240 218 C240.71027344 217.7628125 241.42054688 217.525625 242.15234375 217.28125 C245.4754647 215.78607349 247.79839106 213.86813784 250.5625 211.5 C253.62694997 208.88182915 256.35835533 206.71277354 260 205 C260.61875 204.38125 261.2375 203.7625 261.875 203.125 C264 201 264 201 267.25 198.875 C268.1575 198.25625 269.065 197.6375 270 197 C270 196.34 270 195.68 270 195 C272.475 194.01 272.475 194.01 275 193 C275 192.34 275 191.68 275 191 C276.65 190.67 278.3 190.34 280 190 C280.433125 191.2065625 280.433125 191.2065625 280.875 192.4375 C281.73262568 195.1326468 281.73262568 195.1326468 284 196 C285.01315395 197.65870337 286.01019761 199.32725704 287 201 C288.58222396 203.12687937 290.17861769 205.22653596 291.8125 207.3125 C292.71520682 208.47497857 293.61755247 209.6377377 294.51953125 210.80078125 C294.95088379 211.35588379 295.38223633 211.91098633 295.82666016 212.48291016 C297.23770063 214.3073391 298.6231139 216.14968602 300 218 C302.73631316 221.65628051 305.48540319 225.30256716 308.25 228.9375 C308.68699219 229.51822266 309.12398438 230.09894531 309.57421875 230.69726562 C311.8690126 233.82166219 311.8690126 233.82166219 315 236 C317.66057656 234.7536564 317.66057656 234.7536564 320 233 C320 232.34 320 231.68 320 231 C320.71671875 230.74734375 321.4334375 230.4946875 322.171875 230.234375 C325.23772677 228.8962408 327.58185949 227.26280776 330.25 225.25 C334.51355031 222.05667603 338.84195648 219.14664588 343.41796875 216.421875 C343.94003906 215.95265625 344.46210938 215.4834375 345 215 C345 213.68 345 212.36 345 211 C344.34 211 343.68 211 343 211 C342.7525 210.46375 342.505 209.9275 342.25 209.375 C341.05678998 207.10790096 339.71049171 205.02181742 338.26953125 202.90625 C336.03216881 199.54676425 333.9181931 196.10755939 331.78125 192.68359375 C330.03744164 189.96818172 330.03744164 189.96818172 327.96875 187.47265625 C326.05091227 185.06394338 324.54426837 182.6602282 323 180 C321.50044824 177.54893107 319.97138269 175.11719019 318.4375 172.6875 C318.03853516 172.04232422 317.63957031 171.39714844 317.22851562 170.73242188 C316.20617148 169.11954171 315.10873771 167.55475744 314 166 C313.34 166 312.68 166 312 166 C311.731875 165.278125 311.46375 164.55625 311.1875 163.8125 C310.00098638 161.00233617 308.72514361 158.51583443 307 156 C306.34 156 305.68 156 305 156 C304.87238281 155.17822266 304.87238281 155.17822266 304.7421875 154.33984375 C303.75987326 151.24296885 302.08325601 149.14840216 300.125 146.5625 C297.53561847 143.12750864 295.19042818 139.69965081 293 136 C291.86889021 134.34401328 290.72274158 132.69820806 289.5625 131.0625 C281.98887712 120.30923376 281.98887712 120.30923376 280 116 C279.34 116 278.68 116 278 116 C277.5978125 114.9171875 277.5978125 114.9171875 277.1875 113.8125 C276.00098638 111.00233617 274.72514361 108.51583443 273 106 C272.34 106 271.68 106 271 106 C270.73960937 105.27683594 270.47921875 104.55367188 270.2109375 103.80859375 C268.95948175 100.90602381 267.4751486 98.61958311 265.625 96.0625 C264.99851562 95.18722656 264.37203125 94.31195313 263.7265625 93.41015625 C263.15679687 92.61480469 262.58703125 91.81945312 262 91 C260.66666667 89 259.33333333 87 258 85 C256.23415305 82.48377005 254.46208172 79.9721553 252.68359375 77.46484375 C251.01746899 75.02557526 249.50774723 72.53994583 248 70 C246.35 67.36 244.7 64.72 243 62 C308.01 62 373.02 62 440 62 C440 89.06 440 116.12 440 144 C443.81866486 142.09066757 446.76757158 139.95405609 450.09765625 137.33984375 C452 136 452 136 455 135 C456.34876224 133.68227622 457.68002937 132.34656344 459 131 C460.68313353 129.69597482 462.39360709 128.42673312 464.125 127.1875 C464.99382812 126.56230469 465.86265625 125.93710938 466.7578125 125.29296875 C471.1605445 122.17922937 475.58226409 119.09241514 480 116 C480 85.97 480 55.94 480 25 C329.85 25 179.7 25 25 25 Z M97 91 C97 133.9 97 176.8 97 221 C103.67791355 217.23275717 103.67791355 217.23275717 110 213 C110 212.34 110 211.68 110 211 C112.475 210.505 112.475 210.505 115 210 C115 209.34 115 208.68 115 208 C115.70125 207.773125 116.4025 207.54625 117.125 207.3125 C120.62363901 205.71529523 123.08239761 203.49211871 126 201 C127.65452981 199.98004467 129.32360796 198.98360943 131 198 C133.45053778 196.4995781 135.88280575 194.97138525 138.3125 193.4375 C138.95767578 193.03853516 139.60285156 192.63957031 140.26757812 192.22851562 C141.88045829 191.20617148 143.44524256 190.10873771 145 189 C145 188.34 145 187.68 145 187 C145.721875 186.7525 146.44375 186.505 147.1875 186.25 C150.26894735 184.88046785 152.4060245 183.14002978 155 181 C156.66268849 179.9933994 158.33029293 178.99491511 160 178 C162.62270743 176.34036773 165.21908951 174.64245025 167.8125 172.9375 C168.50537109 172.49083984 169.19824219 172.04417969 169.91210938 171.58398438 C171.64420391 170.44233783 173.32712098 169.22677795 175 168 C175 167.34 175 166.68 175 166 C176.65 165.67 178.3 165.34 180 165 C180 164.34 180 163.68 180 163 C180.53625 162.7525 181.0725 162.505 181.625 162.25 C184.56924328 160.70039828 187.24896202 158.87070582 190 157 C191.12421322 156.24882117 192.24918367 155.49877407 193.375 154.75 C194.24125 154.1725 195.1075 153.595 196 153 C194.86375209 149.06683414 193.9140955 146.8020149 191 144 C190.05021417 142.329687 189.1027932 140.65786084 188.1796875 138.97265625 C186.44171802 136.06644901 184.36634253 133.45106649 182.26953125 130.796875 C181 129 181 129 180 126 C179.34 126 178.68 126 178 126 C177.773125 125.29875 177.54625 124.5975 177.3125 123.875 C175.99671661 120.99280782 174.35977453 118.96474233 172.28515625 116.59375 C170.60317658 114.50789071 169.37937605 112.20722754 168.1015625 109.859375 C166.41936174 107.01991557 164.39128667 104.46560678 162.3828125 101.8515625 C160.74696118 99.66118531 159.37660914 97.35990138 158 95 C157.01 93.68 156.02 92.36 155 91 C135.86 91 116.72 91 97 91 Z M307 91 C308.65 93.97 310.3 96.94 312 100 C312.66 100 313.32 100 314 100 C314.33 101.65 314.66 103.3 315 105 C315.66 105 316.32 105 317 105 C317.226875 105.680625 317.45375 106.36125 317.6875 107.0625 C319.08562547 110.19163795 320.81090901 112.63923377 322.87890625 115.3515625 C324 117 324 117 325 120 C325.66 120 326.32 120 327 120 C327.226875 120.680625 327.45375 121.36125 327.6875 122.0625 C329.08562547 125.19163795 330.81090901 127.63923377 332.87890625 130.3515625 C334 132 334 132 335 135 C335.66 135 336.32 135 337 135 C337.226875 135.680625 337.45375 136.36125 337.6875 137.0625 C339.08562547 140.19163795 340.81090901 142.63923377 342.87890625 145.3515625 C344 147 344 147 345 150 C345.66 150 346.32 150 347 150 C347.226875 150.680625 347.45375 151.36125 347.6875 152.0625 C349.08562547 155.19163795 350.81090901 157.63923377 352.87890625 160.3515625 C354 162 354 162 355 165 C355.66 165 356.32 165 357 165 C357.226875 165.680625 357.45375 166.36125 357.6875 167.0625 C359.08562547 170.19163795 360.81090901 172.63923377 362.87890625 175.3515625 C364 177 364 177 365 180 C365.66 180 366.32 180 367 180 C367.226875 180.680625 367.45375 181.36125 367.6875 182.0625 C369.35572357 185.79614324 371.55729608 188.72163421 374 192 C379.21648553 189.80358504 383.20194181 186.55193479 387.53515625 182.9375 C390.77585297 180.39013776 394.2165017 178.43527683 397.8125 176.4375 C398.534375 175.963125 399.25625 175.48875 400 175 C400 174.34 400 173.68 400 173 C402.02490661 171.98580391 404.03542937 170.98460671 406.11315918 170.08187866 C408.72142405 168.63467668 410.21972726 167.41666186 412 165 C413.14925866 159.41185513 412.93346399 153.9070918 412.78125 148.2265625 C412.76947642 146.76328971 412.76132194 145.2999832 412.75683594 143.83666992 C412.71502235 138.43226358 412.6033303 133.02858021 412.5 127.625 C412.335 115.53875 412.17 103.4525 412 91 C377.35 91 342.7 91 307 91 Z M474.5 159.875 C473.6853125 160.40867188 472.870625 160.94234375 472.03125 161.4921875 C469.88931042 162.84502272 469.88931042 162.84502272 469 165 C467.34819066 166.02435526 465.67837263 167.01977397 464 168 C462.11170199 169.33556092 460.23692933 170.69041709 458.375 172.0625 C455.60972761 174.09667983 452.85666011 176.09555992 450 178 C450 178.66 450 179.32 450 180 C448.88625 180.12375 448.88625 180.12375 447.75 180.25 C444.40476364 181.16233719 443.35715563 182.49998645 441 185 C439.9275 185.70125 438.855 186.4025 437.75 187.125 C436.8425 187.74375 435.935 188.3625 435 189 C435 189.66 435 190.32 435 191 C434.401875 191.103125 433.80375 191.20625 433.1875 191.3125 C430.68462276 192.09911856 429.78685245 193.13545831 428 195 C426.515 195.495 426.515 195.495 425 196 C425 196.66 425 197.32 425 198 C424.46375 198.2475 423.9275 198.495 423.375 198.75 C420.43434576 200.29771276 417.75555114 202.14422066 415 204 C414.113125 204.515625 413.22625 205.03125 412.3125 205.5625 C410.04967515 206.84162396 410.04967515 206.84162396 408.6796875 208.3515625 C406.5545983 210.43711516 404.23419084 212.08076903 401.8125 213.8125 C398.55558338 216.15407404 395.31348574 218.50364521 392.125 220.9375 C389.66994149 222.80190636 387.17054945 224.5749107 384.6171875 226.30078125 C383.72362549 226.90708374 383.72362549 226.90708374 382.81201172 227.52563477 C381.61719254 228.33296677 380.41835835 229.13439272 379.21533203 229.92944336 C377.77520271 230.90307289 376.38256033 231.94621926 375 233 C375 233.66 375 234.32 375 235 C373.92685547 235.38671875 373.92685547 235.38671875 372.83203125 235.78125 C369.82839889 237.07384765 367.36494628 238.6277709 364.6875 240.5 C363.80449219 241.1084375 362.92148437 241.716875 362.01171875 242.34375 C361.34785156 242.8903125 360.68398438 243.436875 360 244 C360 244.66 360 245.32 360 246 C359.401875 246.103125 358.80375 246.20625 358.1875 246.3125 C355.68462276 247.09911856 354.78685245 248.13545831 353 250 C352.01 250.33 351.02 250.66 350 251 C348.64996719 252.31642203 347.31865576 253.65214891 346 255 C344.40038102 256.24173812 342.77282423 257.44798269 341.125 258.625 C340.16464844 259.31335938 339.20429688 260.00171875 338.21484375 260.7109375 C337.15394531 261.46632813 336.09304688 262.22171875 335 263 C333.79262768 263.86671257 332.58560747 264.73391582 331.37890625 265.6015625 C330.14860039 266.484602 328.91813381 267.36741761 327.6875 268.25 C327.11338379 268.6620166 326.53926758 269.0740332 325.94775391 269.49853516 C323.19920684 271.46223791 320.43393203 273.36363788 317.58203125 275.171875 C316.72996094 275.77515625 315.87789062 276.3784375 315 277 C315 277.66 315 278.32 315 279 C314.01 279.309375 314.01 279.309375 313 279.625 C307.97867688 281.92643976 303.86920719 285.49130441 299.58984375 288.9453125 C296.95903126 291.03250311 294.27962928 293.02670895 291.5625 295 C290.60859375 295.69351563 289.6546875 296.38703125 288.671875 297.1015625 C286.58049678 298.58754176 284.47857025 300.00315551 282.3125 301.375 C281.1678125 302.179375 281.1678125 302.179375 280 303 C280 303.66 280 304.32 280 305 C278.92685547 305.38671875 278.92685547 305.38671875 277.83203125 305.78125 C274.82839889 307.07384765 272.36494628 308.6277709 269.6875 310.5 C268.80449219 311.1084375 267.92148437 311.716875 267.01171875 312.34375 C266.34785156 312.8903125 265.68398438 313.436875 265 314 C265 314.66 265 315.32 265 316 C264.319375 316.226875 263.63875 316.45375 262.9375 316.6875 C259.80836205 318.08562547 257.36076623 319.81090901 254.6484375 321.87890625 C253 323 253 323 250 324 C250 323.34 250 322.68 250 322 C248.68279099 320.65073502 247.34621487 319.32032612 246 318 C244.71724175 316.33726505 243.46895359 314.64756093 242.25 312.9375 C241.5590625 311.97457031 240.868125 311.01164063 240.15625 310.01953125 C239.4446875 309.02308594 238.733125 308.02664063 238 307 C236.58569626 305.03995949 235.16910622 303.08156623 233.75 301.125 C233.12609375 300.26132812 232.5021875 299.39765625 231.859375 298.5078125 C230.59726719 296.80555785 229.29306908 295.13387471 227.953125 293.4921875 C226 291 226 291 224.59765625 288.65234375 C222.45501723 285.09524865 219.95313414 281.86215017 217.4375 278.5625 C212.98150377 272.6778378 208.61724847 266.74245956 204.38647461 260.69360352 C202.49121191 258.00330283 200.53756107 255.41511213 198.40234375 252.9140625 C196.28489072 250.34557476 194.66756883 247.86514535 193 245 C191.66443908 243.11170199 190.30958291 241.23692933 188.9375 239.375 C186.90332017 236.60972761 184.90444008 233.85666011 183 231 C182.34 231 181.68 231 181 231 C180.7421875 230.28457031 180.484375 229.56914062 180.21875 228.83203125 C178.92615235 225.82839889 177.3722291 223.36494628 175.5 220.6875 C174.8915625 219.80449219 174.283125 218.92148438 173.65625 218.01171875 C173.1096875 217.34785156 172.563125 216.68398437 172 216 C171.34 216 170.68 216 170 216 C169.505 214.02 169.505 214.02 169 212 C163.47853038 214.56933474 163.47853038 214.56933474 158.7421875 218.29296875 C156.25075729 220.73412346 153.46509897 222.77524868 150.6875 224.875 C147.31335865 227.43199704 143.98103319 229.9977265 140.76953125 232.7578125 C138 235 138 235 135 236 C133.2912354 237.37514541 133.2912354 237.37514541 132 239 C132 239.66 132 240.32 132 241 C132.66 241 133.32 241 134 241 C134.23460937 241.68835938 134.46921875 242.37671875 134.7109375 243.0859375 C136.26510089 246.59928868 138.36050415 249.54838268 140.625 252.625 C141.0686792 253.23601562 141.5123584 253.84703125 141.96948242 254.4765625 C142.87544324 255.72325289 143.78355624 256.96838222 144.69384766 258.21191406 C145.89144249 259.85138781 147.07718559 261.49950187 148.26171875 263.1484375 C152.38314547 268.88117367 152.38314547 268.88117367 156.8125 274.375 C159 277 159 277 160.390625 279.3203125 C162.10119937 282.16850187 163.97580599 284.81914369 165.9375 287.5 C166.60652344 288.4178125 167.27554688 289.335625 167.96484375 290.28125 C169.33070993 292.1059004 170.74093613 293.8981044 172.19140625 295.65625 C174 298 174 298 175 301 C175.60714844 301.60714844 176.21429688 302.21429688 176.83984375 302.83984375 C179.22936457 305.22936457 180.80883468 307.67895635 182.5625 310.5625 C184.50965351 313.75860721 186.32665782 316.40244845 189 319 C190.2549713 320.64732374 191.48126906 322.31665946 192.6875 324 C193.38746094 324.97195313 194.08742187 325.94390625 194.80859375 326.9453125 C195.53175781 327.95335937 196.25492187 328.96140625 197 330 C198.41477213 331.95970245 199.83137112 333.91808764 201.25 335.875 C201.87390625 336.73867188 202.4978125 337.60234375 203.140625 338.4921875 C204.43817559 340.24224523 205.77362595 341.9645574 207.13671875 343.6640625 C209.6732056 346.84397683 211.59053761 350.2629677 213.5625 353.8125 C214.036875 354.534375 214.51125 355.25625 215 356 C215.66 356 216.32 356 217 356 C217.25910156 356.54527344 217.51820313 357.09054687 217.78515625 357.65234375 C219.20031917 360.38711197 220.79122686 362.96032633 222.4375 365.5625 C223.03433594 366.51253906 223.63117188 367.46257812 224.24609375 368.44140625 C225.82791825 370.92029264 225.82791825 370.92029264 227.46875 372.45703125 C230.60389674 375.61617146 232.75995707 379.65512886 235.16015625 383.3828125 C236.73742291 386.06642941 236.73742291 386.06642941 239 387 C240.02611949 388.65071396 241.02308143 390.31970006 242 392 C242.98244845 393.34631825 243.97676564 394.68441297 245 396 C246.65 395.67 248.3 395.34 250 395 C250 394.34 250 393.68 250 393 C251.06541016 392.64421875 251.06541016 392.64421875 252.15234375 392.28125 C255.4754647 390.78607349 257.79839106 388.86813784 260.5625 386.5 C263.63922081 383.87134533 266.38356673 381.77381082 270 380 C271.01422257 379.01442779 272.01200352 378.01186113 273 377 C274.9391096 375.47523005 276.89979348 373.97771061 278.875 372.5 C279.90367187 371.7265625 280.93234375 370.953125 281.9921875 370.15625 C285 368 285 368 287.6953125 366.40625 C289.86893955 365.07996909 291.23446649 363.80476759 293 362 C295.09076702 360.35306737 297.18987379 358.72961868 299.3125 357.125 C302.68664135 354.56800296 306.01896681 352.0022735 309.23046875 349.2421875 C312 347 312 347 315 346 C315 345.34 315 344.68 315 344 C315.53625 343.7525 316.0725 343.505 316.625 343.25 C319.5823982 341.69347463 322.29724051 339.96564327 325 338 C325 337.34 325 336.68 325 336 C325.8971875 335.8453125 325.8971875 335.8453125 326.8125 335.6875 C329.31537724 334.90088144 330.21314755 333.86454169 332 332 C332.99 331.67 333.98 331.34 335 331 C335.598125 330.401875 336.19625 329.80375 336.8125 329.1875 C339 327 339 327 342.25 324.875 C343.1575 324.25625 344.065 323.6375 345 323 C345 322.34 345 321.68 345 321 C345.8971875 320.8453125 345.8971875 320.8453125 346.8125 320.6875 C349.31537724 319.90088144 350.21314755 318.86454169 352 317 C352.99 316.67 353.98 316.34 355 316 C355.598125 315.401875 356.19625 314.80375 356.8125 314.1875 C359 312 359 312 362.25 309.875 C363.1575 309.25625 364.065 308.6375 365 308 C365 307.34 365 306.68 365 306 C365.83144531 305.88011719 365.83144531 305.88011719 366.6796875 305.7578125 C369.79109374 304.74162932 371.64718125 303.0060686 374.125 300.875 C378.64016122 297.06476301 383.26557908 293.6557699 388.19921875 290.41015625 C388.79347656 289.94480469 389.38773437 289.47945312 390 289 C390 288.34 390 287.68 390 287 C390.69996094 286.76023437 391.39992188 286.52046875 392.12109375 286.2734375 C395.49852186 284.77948694 398.12494943 282.86065795 401.0625 280.625 C402.59583984 279.46871094 402.59583984 279.46871094 404.16015625 278.2890625 C406.95633086 276.12658507 406.95633086 276.12658507 409.05859375 273.8984375 C411.21819422 271.78663503 413.38750767 270.51388645 416 269 C418.44785171 267.35609959 420.84886796 265.6486802 423.25 263.9375 C423.88679688 263.49083984 424.52359375 263.04417969 425.1796875 262.58398438 C428.61758047 260.27937033 428.61758047 260.27937033 431 257 C432.65974173 255.98854799 434.32808063 254.99119291 436 254 C438.16731547 252.37519153 440.30987071 250.73723042 442.4375 249.0625 C445.69029963 246.50700253 448.91373004 244.02426272 452.41015625 241.80859375 C453.26480469 241.21175781 454.11945313 240.61492187 455 240 C455 239.34 455 238.68 455 238 C455.68707031 237.77441406 456.37414062 237.54882812 457.08203125 237.31640625 C460.73814617 235.6669943 463.57117777 233.43267533 466.6875 230.9375 C472.80142857 226.09928571 472.80142857 226.09928571 475 225 C475 224.34 475 223.68 475 223 C475.639375 222.690625 476.27875 222.38125 476.9375 222.0625 C478.93610821 221.1654837 478.93610821 221.1654837 480 220 C480.0940067 218.03630847 480.11743381 216.06920801 480.11352539 214.10327148 C480.11341209 212.21142372 480.11341209 212.21142372 480.11329651 210.28135681 C480.1081891 208.89460206 480.10297309 207.50784771 480.09765625 206.12109375 C480.09579201 204.71004791 480.09436814 203.29900143 480.09336853 201.88795471 C480.08954379 198.16759465 480.0797139 194.4472734 480.06866455 190.72692871 C480.05844948 186.93319219 480.05387071 183.13944942 480.04882812 179.34570312 C480.03809158 171.89711769 480.0210157 164.44856428 480 157 C477.97781607 157 476.11650468 158.80585608 474.5 159.875 Z M270 227.9375 C269.01 228.9584375 269.01 228.9584375 268 230 C267.01 230.33 266.02 230.66 265 231 C263.88463484 232.1491641 262.77156266 233.30066823 261.671875 234.46484375 C258.73035763 237.16581648 255.34058761 239.25751093 252.01171875 241.44921875 C251.34785156 241.96097656 250.68398437 242.47273438 250 243 C250 243.66 250 244.32 250 245 C248.35 245.66 246.7 246.32 245 247 C245.53136656 251.32532378 248.25712257 254.26605095 250.875 257.5625 C251.32230469 258.13935547 251.76960937 258.71621094 252.23046875 259.31054688 C254.35980447 262.03345848 256.55554099 264.5630624 259 267 C259.474375 267.886875 259.94875 268.77375 260.4375 269.6875 C260.953125 270.450625 261.46875 271.21375 262 272 C266.68095955 272 267.62089231 271.14349072 271.25 268.375 C272.21808594 267.64539063 273.18617188 266.91578125 274.18359375 266.1640625 C275.11300781 265.44992187 276.04242188 264.73578125 277 264 C278.43616503 262.91489753 279.87349491 261.8313333 281.3125 260.75 C281.94027344 260.27433594 282.56804687 259.79867187 283.21484375 259.30859375 C284.89886126 258.0741389 286.61569217 256.93591343 288.375 255.8125 C291.19958851 254.10092635 291.19958851 254.10092635 293 251 C292.32453125 250.05898437 291.6490625 249.11796875 290.953125 248.1484375 C290.05203196 246.8906618 289.15099319 245.63284723 288.25 244.375 C287.8065625 243.75753906 287.363125 243.14007813 286.90625 242.50390625 C284.81459078 239.58173528 282.75247106 236.65088546 280.77734375 233.6484375 C279.30354712 231.45231856 277.89651609 229.8062058 276 228 C275.67 227.34 275.34 226.68 275 226 C271.89502283 225.65210239 271.89502283 225.65210239 270 227.9375 Z M405 314 C405 314.66 405 315.32 405 316 C403.35 316.66 401.7 317.32 400 318 C400 318.66 400 319.32 400 320 C399.278125 320.24878906 398.55625 320.49757813 397.8125 320.75390625 C394.7310493 322.1191601 392.57732003 323.77496741 390 325.9375 C387.51459534 328.01514296 385.15877994 329.90525185 382.375 331.56640625 C380.16407515 332.90096122 378.78467355 334.17014484 377 336 C375.1219736 337.4606872 373.22375915 338.8955742 371.3125 340.3125 C370.23823679 341.11061725 369.16401818 341.90879452 368.08984375 342.70703125 C367.07019531 343.46371094 366.05054688 344.22039062 365 345 C362.8393965 346.63313222 360.68027342 348.26814677 358.5234375 349.90625 C357 351 357 351 355 352 C355 352.66 355 353.32 355 354 C354.46375 354.2475 353.9275 354.495 353.375 354.75 C350.4176018 356.30652537 347.70275949 358.03435673 345 360 C345 360.66 345 361.32 345 362 C344.1028125 362.1546875 344.1028125 362.1546875 343.1875 362.3125 C340.68462276 363.09911856 339.78685245 364.13545831 338 366 C336.515 366.495 336.515 366.495 335 367 C332.25 369.25 332.25 369.25 330 372 C330 373.32 330 374.64 330 376 C330.66 376 331.32 376 332 376 C332.37125 377.051875 332.37125 377.051875 332.75 378.125 C334.17531762 381.40323052 335.96347769 384.05835667 338 387 C339.0240801 388.51864896 340.04472155 390.03962058 341.0625 391.5625 C341.54847656 392.28566406 342.03445313 393.00882812 342.53515625 393.75390625 C344.08794133 396.13484337 345.54262071 398.55941268 347 401 C348.67627094 403.73617616 350.36826504 406.46242047 352.0625 409.1875 C352.50916016 409.91130859 352.95582031 410.63511719 353.41601562 411.38085938 C353.84720703 412.07373047 354.27839844 412.76660156 354.72265625 413.48046875 C355.11203369 414.10848389 355.50141113 414.73649902 355.90258789 415.38354492 C357.03452747 417.15976148 357.03452747 417.15976148 359 419 C376.49 419 393.98 419 412 419 C412 383.03 412 347.06 412 310 C409.49671686 310 406.92553059 312.60706297 405 314 Z M145 334 C145 334.66 145 335.32 145 336 C144.30132812 336.2371875 143.60265625 336.474375 142.8828125 336.71875 C139.46522382 338.2376783 136.83369808 340.21609271 133.875 342.5 C130.95001012 344.74662565 128.06902312 346.95398459 125 349 C125 349.66 125 350.32 125 351 C124.278125 351.24878906 123.55625 351.49757813 122.8125 351.75390625 C119.7310493 353.1191601 117.57732003 354.77496741 115 356.9375 C112.47169641 359.05100378 110.08795979 360.94789882 107.25 362.62890625 C104.87814466 363.8011513 104.87814466 363.8011513 104 366 C101.9375 367.125 101.9375 367.125 100 368 C100 368.66 100 369.32 100 370 C98.515 370.495 98.515 370.495 97 371 C97 386.84 97 402.68 97 419 C136.27 419 175.54 419 216 419 C214.68 416.69 213.36 414.38 212 412 C211.34 412 210.68 412 210 412 C209.896875 411.401875 209.79375 410.80375 209.6875 410.1875 C208.90088144 407.68462276 207.86454169 406.78685245 206 405 C205.67 404.01 205.34 403.02 205 402 C204.34 402 203.68 402 203 402 C202.75121094 401.45214844 202.50242187 400.90429688 202.24609375 400.33984375 C200.7537544 397.53761406 198.95869692 395.10841803 197.0625 392.5625 C195.01095299 389.8053742 193.07821171 387.13672982 191.37109375 384.15234375 C190.91863281 383.44207031 190.46617187 382.73179687 190 382 C189.34 382 188.68 382 188 382 C187.75121094 381.45214844 187.50242187 380.90429688 187.24609375 380.33984375 C185.7537544 377.53761406 183.95869692 375.10841803 182.0625 372.5625 C180.01095299 369.8053742 178.07821171 367.13672982 176.37109375 364.15234375 C175.91863281 363.44207031 175.46617187 362.73179687 175 362 C174.34 362 173.68 362 173 362 C172.75121094 361.45214844 172.50242187 360.90429688 172.24609375 360.33984375 C170.7537544 357.53761406 168.95869692 355.10841803 167.0625 352.5625 C165.01095299 349.8053742 163.07821171 347.13672982 161.37109375 344.15234375 C160.91863281 343.44207031 160.46617187 342.73179687 160 342 C159.34 342 158.68 342 158 342 C157.6596875 341.2265625 157.6596875 341.2265625 157.3125 340.4375 C155.51018245 337.09033884 153.38717496 333.96109508 151 331 C148.75259399 331 146.79108424 332.80594384 145 334 Z " fill="#000000" transform="translate(0,0)"/>
</svg>
