<?xml version="1.0" standalone="yes"?>
<svg xmlns="http://www.w3.org/2000/svg" width="667" height="599">
<path style="fill:#0d0606; stroke:none;" d="M0 0L0 332C12.5154 328.371 23.9188 322.025 36 317.298C72.1353 303.159 107.622 286.99 144 273.529C158.772 268.062 189.485 261.386 196 246L197 246C200.39 253.219 207.78 260.731 212.917 267C229.1 286.754 249.64 304.874 271 319L313.258 248L327 218C311.217 218.131 296.439 227.129 282 232.575C255.412 242.603 227.406 250.81 199 246C203.105 230.173 226.015 210.625 237.975 200.085C242.737 195.888 247.483 190.839 254 190L261 185L261 187C285.429 182.462 301.507 171.504 319.661 154.706C326.506 148.373 335.5 140.601 337 131L338 131L339 133L343 125L346 125L345 122L349 121L348 118L351 118L352 116C351.463 113.317 357.174 103.293 360 104L366 96L368 93C367.282 89.4121 378.737 71.4341 381 72L390 53L393 53L392 50L412 24C414.123 17.6039 420.073 10.2836 427 9C426.298 5.48907 434.5 2.99866 435 5L436 5C438.615 0.96698 443.614 2 448 2C442.819 7.63239 436.015 10.4894 431.194 17.0895C421.888 29.8308 416.327 44.7744 409.841 59C397.773 85.468 386.899 112.399 375.138 139C347.114 202.384 317.134 264.399 279.947 323C262.452 350.57 242.856 376.257 221.572 401.001C214.117 409.667 196.505 421.217 195 433C184.92 428.892 175.654 426.81 165 429.86C158.906 431.605 149.314 438.298 143 436.886C129.979 433.973 114.911 417.194 104 409.745C80.3857 393.623 57.067 376.827 34.0039 359.921C23.58 352.279 9.7128 345.429 1 336L0 336L0 599L286 599C269.082 565.938 256.209 530.091 241.445 496C237.821 487.632 233.093 479.797 228.399 472C226.776 469.304 223.179 465.4 223.306 462.09C223.602 454.342 243.266 444.127 248.999 439.92C271.247 423.592 290.77 402.221 306.985 380C355.018 314.179 382.155 230.058 402.478 152C412.752 112.535 424.57 73.2128 435.86 34C438.12 26.1512 440.882 16.3243 446.264 10.0185C449.335 6.41998 453.912 3.02252 457 8L460 7L461 11C470.495 13.6614 478.295 27.7213 483.515 35.5756C500.63 61.3234 512.959 92.0635 523.529 121C554.843 206.723 581.609 294.13 615.204 379C626.437 407.379 637.874 435.689 649.309 464C654.47 476.778 665.249 491.079 666 505C620.218 478.92 588.639 413.767 531 412.455C501.975 411.795 476.935 436.065 458 455C422.371 490.629 393.356 531.629 355.09 564.735C337.964 579.553 312.646 597.496 289 598L289 599L667 599L667 0L0 0z"/>
<path style="fill:#498584; stroke:none;" d="M436 5L435 5L434 3L427 9C419.807 9.60266 413.362 17.1586 412 24C402.937 25.8644 398.048 43.5895 392 50L393 53C387.702 55.9689 381.426 66.0168 381 72C375.847 72.7209 367.81 87.9944 368 93L366 96C362.064 96.8477 360.343 100.15 360 104C355.152 105.047 352.318 111.36 352 116L350 116L350 117L351 118L348 118L349 121L345 122L346 125L343 125C342.467 128.2 338.866 134.464 338 131L337 131C334.601 140.489 325.843 148.216 318.883 154.706C300.824 171.549 284.8 181.318 261 187L261 185L254 190C249.096 188.452 246.599 192.534 244 196L282 195C272.362 215.665 234.624 228.133 214 224C208.674 230.478 200.255 237.402 199 246C226.898 253.381 260.151 241.654 286 231.399C298.998 226.242 312.73 218.296 327 218C318.16 255.217 286.034 284.768 271 319C244.826 294.908 217.87 275.497 197 246L196 246C182.419 268.135 223.307 282.034 235.492 296.375C238.118 299.465 238.037 305.154 238.996 309C241.855 320.46 246.553 338.162 244.607 349.961C243.649 355.771 235.738 362.378 232.154 366.91C218.259 384.483 200.859 399.527 183 412.965C177.589 417.036 161.433 423.6 160 430C156.454 429.86 155.274 430.693 154 434L155 434C159.918 430.214 167.38 430.938 172.406 427.196C202.224 404.998 225.458 379.688 251 353C239.637 370.181 225.372 387.252 210.985 402C202.871 410.318 190.364 418.985 186 430L195 433C197.666 421.279 213.979 410.856 221.572 402C242.822 377.216 262.446 351.578 279.947 324C320.385 260.276 352.922 192.304 382.579 123C399.9 82.5208 413.184 31.2699 448 3C444.352 1.66644 437.024 0.221802 436 5z"/>
<path style="fill:#c4490f; stroke:none;" d="M447 2L448 3L447 2M446 4L447 5L446 4M251 518C283.001 502.865 312.956 502 348 502C358.386 502 374.244 499.001 384 502.603C392.208 505.635 394.282 516.237 402 520L450 463L450 462C446.625 455.168 450.188 444.471 450.29 437C450.565 416.835 453.291 396.155 451.91 376C446.418 295.799 436 215.548 436 135C436 110.143 438.662 85.5995 441.845 61C442.477 56.1169 445.345 39.2068 452.018 39.2068C458.955 39.2068 463.004 52.9069 464.936 58C472.855 78.8823 476.117 102.985 479.271 125C489.537 196.659 492.977 269.102 500.171 341C502.68 366.078 507.825 391.006 511 416C521.827 414.407 531.85 411.157 543 413.518C579.957 421.343 607.656 456.773 634.336 480.86C643.692 489.306 654.076 500.413 666 505C665.664 491.057 654.997 476.678 649.731 464C638.019 435.806 627.033 407.302 615.604 379C581.308 294.067 554.951 206.018 523.529 120C512.93 90.985 500.5 60.6232 483.515 34.7145C478.467 27.014 470.609 12.6408 461 11L460 7L457 8C453.459 -4.59863 441.15 17.9744 439.676 22C430.602 46.783 425.292 72.7679 417.708 98C390.335 189.08 368.776 283.952 316.495 365C299.388 391.52 278.396 414.213 254.741 434.981C246.002 442.654 228.042 449.422 222.954 460.259C220.989 464.444 227.559 471.573 229.602 475C237.823 488.792 244.522 503.331 251 518z"/>
<path style="fill:#64b9b2; stroke:none;" d="M251 353L252 353C312.851 268.73 355.8 176.848 397.284 82C403.727 67.2689 409.88 52.2958 417.258 38C422.181 28.4628 429.186 18.9182 433 9C422.778 10.6235 416.198 20.7285 411.204 29C399.208 48.8656 392.079 72.1586 384.495 94C361.733 159.555 329.661 223.82 295.346 284C288.047 296.8 280.704 309.923 272.23 322C265.295 331.884 255.904 341.98 251 353M407 27L408 28L407 27z"/>
<path style="fill:#ffad0f; stroke:none;" d="M448 462C454.687 461.715 459.534 454.466 464 450C473.532 440.468 483.507 431.802 495 424.663C499.069 422.135 509.646 419.155 510.512 413.945C511.74 406.568 508.834 395.347 507.46 388C504.519 372.272 501.764 355.927 500.171 340C493.642 274.753 488.821 209.303 481.947 144C479.126 117.206 474.955 88.7832 466.975 63C464.918 56.355 460.96 40.5018 453.001 38.7515C445.513 37.1049 442.488 55.0328 441.845 60C438.526 85.6533 436 111.087 436 137C436 189.382 440.197 241.924 445.17 294C449.239 336.612 451.912 377.241 450.039 420C449.426 434.013 450.577 448.118 448 462z"/>
<path style="fill:#498584; stroke:none;" d="M391 52L392 53L391 52z"/>
<path style="fill:#64b9b2; stroke:none;" d="M390 53L391 54L390 53M365 111L348 138C356.599 135.077 368.986 120.795 365 111z"/>
<path style="fill:#498584; stroke:none;" d="M341 127L342 128L341 127M333 137L332 139L333 137M318 152L319 153L318 152M287 175L288 176L287 175z"/>
<path style="fill:#64b9b2; stroke:none;" d="M245 194L246 195L245 194M242 195L216 221C218.669 229.476 229.65 225.586 236 223.848C249.952 220.029 277.664 210.445 282 195C268.342 195.038 255.497 199.212 242 195M215 224L216 225L215 224M214 225L215 226L214 225M190 254C173.478 263.664 153.708 269.03 136 276.282C107.708 287.868 79.729 300.84 51 311.305C38.0845 316.009 25.6168 321.458 13 326.87C9.86469 328.215 1.95941 329.702 0.712191 333.284C-1.25397 338.931 13.669 345.81 17.3002 348.601C36.0839 363.037 56.2281 375.653 75.1157 389.936C90.9719 401.927 107.459 413.247 123.826 424.505C129.317 428.281 137.025 437.29 143.985 437.438C152.035 437.608 162.205 427.039 169 423.128C191.276 410.306 213.004 391.065 229.29 371.282C233.777 365.831 243.173 357.883 244.682 350.91C247.859 336.234 239.905 316.513 237.742 302.004C236.525 293.843 229.061 290.603 223.17 285.654C210.874 275.323 199.478 266.651 190 254M240 300L241 301L240 300z"/>
<path style="fill:#0d0606; stroke:none;" d="M268 321L269 322L268 321z"/>
<path style="fill:#64b9b2; stroke:none;" d="M246 349L247 350L246 349M250 353C234.206 370.147 220.24 388.246 202 403C193.782 409.648 176.704 417.971 173 428L186 430C191.83 419.989 201.916 412.178 209.996 404C218.641 395.251 226.137 385.339 234.131 376C238.526 370.865 250.224 359.816 250 353z"/>
<path style="fill:#ffad0f; stroke:none;" d="M516 413L517 414L516 413z"/>
<path style="fill:#0d0606; stroke:none;" d="M161 428L162 429L161 428M158.667 429.333L159.333 429.667L158.667 429.333z"/>
<path style="fill:#64b9b2; stroke:none;" d="M157 431L158 432L157 431M155 432L156 433L155 432z"/>
<path style="fill:#498584; stroke:none;" d="M138 433L139 434L138 433M152 433L153 434L152 433M150 434L151 435L150 434M148 435L149 436L148 435z"/>
<path style="fill:#c4490f; stroke:none;" d="M452 459L453 460L452 459z"/>
<path style="fill:#ffad0f; stroke:none;" d="M449 463L450 464L449 463M251 518C259.105 537.729 267.966 557.159 275.866 577C278.052 582.492 280.623 594.976 286.225 597.883C292.812 601.3 307.97 594.29 314 591.406C338.52 579.677 360.246 563.773 379.151 544.101C383.732 539.334 399.555 526.658 399.017 519.911C397.456 500.335 374.333 502 361 502C325.196 502 282.188 496.978 251 518z"/>
<path style="fill:#c4490f; stroke:none;" d="M251 519L252 520L251 519z"/>
</svg>
