<?xml version="1.0" standalone="yes"?>
<svg xmlns="http://www.w3.org/2000/svg" width="2560" height="1984">
<path style="fill:#010101; stroke:none;" d="M0 0L0 1984L2560 1984L2560 0L0 0z"/>
<path style="fill:#638aa4; stroke:none;" d="M1241 10L1242 11L1241 10z"/>
<path style="fill:#bfc2c5; stroke:none;" d="M26 1030C39.9025 1026.73 54.1713 1012.23 66 1004.33C96.5634 983.92 126.739 962.883 157 942.026C258.095 872.346 359.906 803.705 461 734.026C806.101 496.164 1151.54 258.399 1499 24C1488.63 18.6741 1471.51 20.1128 1459.99 19.1868C1432.62 16.9879 1405.36 14.7848 1378 12.9105C1261.29 4.91675 1142.87 11.4829 1027 26.7184C775.93 59.7316 525.562 145.3 322 298.626C183.539 402.916 69.6167 543.068 22.7454 712C3.32083 782.009 -2.36228 857.926 6.28549 930C8.6464 949.677 11.2438 969.716 16.0502 988.961C19.3264 1002.08 25.1189 1016.55 26 1030z"/>
<path style="fill:#adafb3; stroke:none;" d="M1312.67 10.3334L1313.33 10.6666L1312.67 10.3334M1206 11L1207 12L1206 11M1348 11L1349 12L1348 11M1390 13L1391 14L1390 13z"/>
<path style="fill:#638aa4; stroke:none;" d="M1421 15L1422 16L1421 15z"/>
<path style="fill:#adafb3; stroke:none;" d="M1434 16L1435 17L1434 16M1442 17L1443 18L1442 17M1445 17L1446 18L1445 17M1453.67 18.3334L1454.33 18.6666L1453.67 18.3334M1456 18L1457 19L1456 18M1458.67 19.3334L1459.33 19.6666L1458.67 19.3334M1461.67 19.3334L1462.33 19.6666L1461.67 19.3334M1465 19L1466 20L1465 19M1476 20L1477 21L1476 20M1483.67 21.3334L1484.33 21.6666L1483.67 21.3334z"/>
<path style="fill:#638aa4; stroke:none;" d="M1486 21L1487 22L1486 21z"/>
<path style="fill:#adafb3; stroke:none;" d="M1490 22L1491 23L1490 22M1492.67 22.3334L1493.33 22.6666L1492.67 22.3334z"/>
<path style="fill:#638aa4; stroke:none;" d="M1495 22L1496 23L1495 22z"/>
<path style="fill:#adafb3; stroke:none;" d="M27 1030C33.2425 1060.24 46.8712 1090.08 59.6914 1118C97.9726 1201.38 153.306 1275.31 218 1340C378.752 1500.75 592.994 1602.8 811 1660.12C867.394 1674.94 924.491 1686.41 982 1695.92C1005.56 1699.81 1029.55 1701.63 1053 1706L1053 1521L1053 1473C1053 1468.31 1054.86 1458.48 1051.97 1454.56C1049.48 1451.18 1041.81 1450.43 1038 1449.28C1025.25 1445.44 1012.63 1441.21 1000 1437C956.137 1422.38 912.389 1405.43 871 1384.75C722.679 1310.64 570.819 1200.34 520.72 1034C486.307 919.742 511.937 799.91 579.771 703C598.938 675.617 620.825 649.939 644.424 626.289C651.268 619.431 658.583 612.631 665.803 606.154C668.928 603.351 674.147 600.162 675 596L699 578.261L744 544.779L762 531C768.586 530.177 781.909 522.087 785 516C790.292 516.302 810.273 506.13 811 501L851 482L851 480L868 473.003L905 456.012L923 447C937.415 446.456 955.565 435.541 969 430.158C993.959 420.157 1020.27 412.47 1046 404.72C1125.88 380.662 1209.04 364.053 1292 355.166C1361.99 347.668 1431.59 345 1502 345C1557.65 345 1613.63 348.472 1669 353.83C1706.11 357.422 1743.15 361.67 1780 367.589C1994.95 402.116 2235.26 486.006 2345.31 689C2360.97 717.893 2373.63 748.385 2382.71 780C2393.95 819.148 2401.8 861.207 2402 902C2402.3 963.37 2398.15 1021.4 2382 1081C2421.92 1056.36 2460.78 1028.36 2499 1001.14C2508.85 994.128 2518.95 987.382 2529 980.667C2533.4 977.731 2540.22 974.46 2542.99 969.816C2548.22 961.033 2547.57 944.986 2548.82 935C2552.17 908.257 2553 881.965 2553 855C2553 720.66 2499.53 592.497 2421.57 485C2370.95 415.198 2307.09 354.814 2239 302.349C2092.57 189.518 1918.97 114.85 1741 68.1157C1685.13 53.4447 1628.21 40.972 1571 32.7291C1548.75 29.5231 1524.47 23.1632 1502 23.4189C1492.36 23.5286 1479.78 36.4763 1472 41.6666C1446.47 58.698 1421.54 76.635 1396 93.6666C1296.6 159.964 1197.94 227.846 1100 296.28C869.286 457.492 634.747 613.294 403 773.026C320.861 829.64 238.139 885.411 156 942.026C113.72 971.167 71.8453 1005.03 27 1030z"/>
<path style="fill:#bfc2c5; stroke:none;" d="M1503 23L1504 24L1503 23z"/>
<path style="fill:#adafb3; stroke:none;" d="M1044 24L1045 25L1044 24z"/>
<path style="fill:#bfc2c5; stroke:none;" d="M1523 26L1524 27L1523 26M1525.67 26.3334L1526.33 26.6666L1525.67 26.3334M1531 27L1532 28L1531 27M1535 27L1536 28L1535 27M1540 28L1541 29L1540 28M1542 28L1543 29L1542 28M1545 29L1546 30L1545 29M1547 29L1548 30L1547 29z"/>
<path style="fill:#adafb3; stroke:none;" d="M1000 30L1001 31L1000 30z"/>
<path style="fill:#bfc2c5; stroke:none;" d="M1552 30L1553 31L1552 30M1555 30L1556 31L1555 30M1562 31L1563 32L1562 31M1593 36L1594 37L1593 36z"/>
<path style="fill:#adafb3; stroke:none;" d="M956 37L957 38L956 37z"/>
<path style="fill:#bfc2c5; stroke:none;" d="M1599 37L1600 38L1599 37M1627 42L1628 43L1627 42M1632 43L1633 44L1632 43M1637 44L1638 45L1637 44M1642 45L1643 46L1642 45M1647 46L1648 47L1647 46M1652 47L1653 48L1652 47z"/>
<path style="fill:#638aa4; stroke:none;" d="M1657 48L1658 49L1657 48M1680 53L1681 54L1680 53z"/>
<path style="fill:#bfc2c5; stroke:none;" d="M1689 55L1690 56L1689 55z"/>
<path style="fill:#adafb3; stroke:none;" d="M862 56L863 57L862 56z"/>
<path style="fill:#bfc2c5; stroke:none;" d="M1706 59L1707 60L1706 59z"/>
<path style="fill:#adafb3; stroke:none;" d="M825 65L826 66L825 65z"/>
<path style="fill:#bfc2c5; stroke:none;" d="M1730 65L1731 66L1730 65M1738 67L1739 68L1738 67z"/>
<path style="fill:#638aa4; stroke:none;" d="M1742 68L1743 69L1742 68z"/>
<path style="fill:#adafb3; stroke:none;" d="M802 71L803 72L802 71z"/>
<path style="fill:#bfc2c5; stroke:none;" d="M1757 72L1758 73L1757 72M1782 79L1783 80L1782 79z"/>
<path style="fill:#adafb3; stroke:none;" d="M770 80L771 81L770 80z"/>
<path style="fill:#bfc2c5; stroke:none;" d="M1799 84L1800 85L1799 84z"/>
<path style="fill:#638aa4; stroke:none;" d="M1812 88L1813 89L1812 88M1828 93L1829 94L1828 93z"/>
<path style="fill:#bfc2c5; stroke:none;" d="M1861 104L1862 105L1861 104z"/>
<path style="fill:#adafb3; stroke:none;" d="M683 108L684 109L683 108z"/>
<path style="fill:#638aa4; stroke:none;" d="M1878 110L1879 111L1878 110z"/>
<path style="fill:#bfc2c5; stroke:none;" d="M1913 123L1914 124L1913 123z"/>
<path style="fill:#adafb3; stroke:none;" d="M627 129L628 130L627 129M622 131L623 132L622 131M617 133L618 134L617 133z"/>
<path style="fill:#bfc2c5; stroke:none;" d="M1948 137L1949 138L1948 137z"/>
<path style="fill:#adafb3; stroke:none;" d="M605 138L606 139L605 138z"/>
<path style="fill:#bfc2c5; stroke:none;" d="M1960 142L1961 143L1960 142M1967 145L1968 146L1967 145M1976 149L1977 150L1976 149z"/>
<path style="fill:#adafb3; stroke:none;" d="M577 150L578 151L577 150M557 159L558 160L557 159z"/>
<path style="fill:#bfc2c5; stroke:none;" d="M2007 163L2008 164L2007 163M2030 174L2031 175L2030 174M2032 175L2033 176L2032 175M2036 177L2037 178L2036 177M2044 181L2045 182L2044 181M2048 183L2049 184L2048 183M2050 184L2051 185L2050 184M2093 207L2094 208L2093 207M2109 216L2110 217L2109 216M2126 226L2127 227L2126 226z"/>
<path style="fill:#638aa4; stroke:none;" d="M2131 229L2132 230L2131 229z"/>
<path style="fill:#bfc2c5; stroke:none;" d="M2136 232L2137 233L2136 232M2160 247L2161 248L2160 247z"/>
<path style="fill:#638aa4; stroke:none;" d="M2163 249L2164 250L2163 249M2190 267L2191 268L2190 267M2203 276L2204 277L2203 276z"/>
<path style="fill:#adafb3; stroke:none;" d="M348 279L349 280L348 279z"/>
<path style="fill:#638aa4; stroke:none;" d="M2210 281L2211 282L2210 281M2237 301L2238 302L2237 301M2241 304L2242 305L2241 304z"/>
<path style="fill:#bfc2c5; stroke:none;" d="M2260 319L2261 320L2260 319z"/>
<path style="fill:#638aa4; stroke:none;" d="M2271 328L2272 329L2271 328M2284 339L2285 340L2284 339z"/>
<path style="fill:#010101; stroke:none;" d="M1053 1454L1053 540L1740 540C1806.63 540 1875.7 534.859 1942 541.17C2025.27 549.095 2107.47 574.026 2177 621.344C2288.63 697.309 2333.02 828.556 2324.09 959C2319.54 1025.4 2303.07 1090.02 2267.57 1147C2218.73 1225.41 2138.78 1280.41 2052 1309.33C2019.51 1320.16 1982.6 1332.71 1948 1333C1958.68 1339.72 1974.02 1342.34 1986 1346.33C2008.65 1353.88 2031.3 1362.35 2053 1372.31C2062.53 1376.68 2071.97 1381.26 2081 1386.6C2084.88 1388.9 2090.33 1393.84 2095 1393.85C2104.1 1393.88 2118.16 1383.24 2126 1378.86C2153.02 1363.78 2179.23 1347.45 2204 1328.87C2316.62 1244.4 2391.17 1118.52 2400.91 977C2404.89 919.13 2402.56 860.721 2389.12 804C2380.44 767.416 2368.01 731.457 2350.74 698C2272.23 545.877 2116.08 455.643 1957 407.72C1828.49 369.006 1695.5 352.807 1562 346.961C1373.41 338.702 1182.75 357.838 1003 418.333C916.276 447.519 831.02 485.342 755 536.745C696.736 576.143 642.759 621.831 598.801 677C568.936 714.48 544.795 756.185 527.808 801C515.424 833.67 509.137 867.389 505.83 902C495.364 1011.54 544.752 1119.24 615.845 1200C728.294 1327.73 891.267 1408.1 1053 1454z"/>
<path style="fill:#bfc2c5; stroke:none;" d="M1382 347L1383 348L1382 347M1339 350L1340 351L1339 350M1327 351L1328 352L1327 351M1317 352L1318 353L1317 352M1307 353L1308 354L1307 353M1298 354L1299 355L1298 354M2301 354L2302 355L2301 354z"/>
<path style="fill:#adafb3; stroke:none;" d="M253 355L254 356L253 355z"/>
<path style="fill:#bfc2c5; stroke:none;" d="M1289 355L1290 356L1289 355z"/>
<path style="fill:#638aa4; stroke:none;" d="M1265 358L1266 359L1265 358M1738 361L1739 362L1738 361M2312 364L2313 365L2312 364z"/>
<path style="fill:#adafb3; stroke:none;" d="M241 366L242 367L241 366z"/>
<path style="fill:#bfc2c5; stroke:none;" d="M1211 366L1212 367L1211 366z"/>
<path style="fill:#638aa4; stroke:none;" d="M1200 368L1201 369L1200 368z"/>
<path style="fill:#bfc2c5; stroke:none;" d="M1194 369L1195 370L1194 369M1803 371L1804 372L1803 371M1814 373L1815 374L1814 373z"/>
<path style="fill:#638aa4; stroke:none;" d="M1168 374L1169 375L1168 374z"/>
<path style="fill:#bfc2c5; stroke:none;" d="M1835 377L1836 378L1835 377M1148 378L1149 379L1148 378z"/>
<path style="fill:#638aa4; stroke:none;" d="M1144 379L1145 380L1144 379M1135 381L1136 382L1135 381z"/>
<path style="fill:#bfc2c5; stroke:none;" d="M1859 382L1860 383L1859 382M1868 384L1869 385L1868 384M2334 385L2335 386L2334 385M2335 386L2336 387L2335 386M1109 387L1110 388L1109 387M1881 387L1882 388L1881 387M2336 387L2337 388L2336 387M1105 388L1106 389L1105 388M2337 388L2338 389L2337 388M2338 389L2339 390L2338 389M2339 390L2340 391L2339 390M1093 391L1094 392L1093 391M2340 391L2341 392L2340 391M1089 392L1090 393L1089 392M2341 392L2342 393L2341 392M1082 394L1083 395L1082 394M1078 395L1079 396L1078 395M1913 395L1914 396L1913 395M1074 396L1075 397L1074 396M1067 398L1068 399L1067 398M1059 400L1060 401L1059 400z"/>
<path style="fill:#638aa4; stroke:none;" d="M1053 402L1054 403L1053 402z"/>
<path style="fill:#bfc2c5; stroke:none;" d="M1046 404L1047 405L1046 404z"/>
<path style="fill:#638aa4; stroke:none;" d="M1043 405L1044 406L1043 405z"/>
<path style="fill:#bfc2c5; stroke:none;" d="M1033 408L1034 409L1033 408z"/>
<path style="fill:#638aa4; stroke:none;" d="M1968 411L1969 412L1968 411M1014 414L1015 415L1014 414z"/>
<path style="fill:#bfc2c5; stroke:none;" d="M2363 415L2364 416L2363 415M1008 416L1009 417L1008 416M1005 417L1006 418L1005 417M999 419L1000 420L999 419M996 420L997 421L996 420M992 421L993 422L992 421M990 422L991 423L990 422z"/>
<path style="fill:#adafb3; stroke:none;" d="M184 424L185 425L184 424z"/>
<path style="fill:#bfc2c5; stroke:none;" d="M984 424L985 425L984 424M2372 425L2373 426L2372 425M979 426L980 427L979 426M976 427L977 428L976 427M969.667 429.333L970.333 429.667L969.667 429.333M962 432L963 433L962 432z"/>
<path style="fill:#638aa4; stroke:none;" d="M2030 433L2031 434L2030 433M2380 434L2381 435L2380 434z"/>
<path style="fill:#bfc2c5; stroke:none;" d="M944 439L945 440L944 439M939 441L940 442L939 441M929 445L930 446L929 445M926 446L927 447L926 446M923 447L924 448L923 447M917 450L918 451L917 450z"/>
<path style="fill:#638aa4; stroke:none;" d="M2077 453L2078 454L2077 453z"/>
<path style="fill:#bfc2c5; stroke:none;" d="M2396 453L2397 454L2396 453M908 454L909 455L908 454M903 456L904 457L903 456M901 457L902 458L901 457M894 460L895 461L894 460M892 461L893 462L892 461M890 462L891 463L890 462M885 464L886 465L885 464M883 465L884 466L883 465M877 468L878 469L877 468M868 472L869 473L868 472M2412 473L2413 474L2412 473M864 474L865 475L864 474M862 475L863 476L862 475M2121 475L2122 476L2121 475M857.667 477.333L858.333 477.667L857.667 477.333z"/>
<path style="fill:#638aa4; stroke:none;" d="M2415 477L2416 478L2415 477z"/>
<path style="fill:#bfc2c5; stroke:none;" d="M851 480L852 481L851 480M2130 480L2131 481L2130 480M849 481L850 482L849 481M848 482L849 483L848 482M2139 485L2140 486L2139 485M840 486L841 487L840 486M838 487L839 488L838 487z"/>
<path style="fill:#adafb3; stroke:none;" d="M132 488L133 489L132 488z"/>
<path style="fill:#bfc2c5; stroke:none;" d="M2144 488L2145 489L2144 488M833 490L834 491L833 490M828 492L829 493L828 492M827 493L828 494L827 493z"/>
<path style="fill:#638aa4; stroke:none;" d="M2429 496L2430 497L2429 496z"/>
<path style="fill:#bfc2c5; stroke:none;" d="M820 497L821 498L820 497M818 498L819 499L818 498M816 499L817 500L816 499M2162 499L2163 500L2162 499M811.667 501.333L812.333 501.667L811.667 501.333M809 503L810 504L809 503M2170 504L2171 505L2170 504M804 506L805 507L804 506M2173 506L2174 507L2173 506M2176 508L2177 509L2176 508M797 510L798 511L797 510M2179 510L2180 511L2179 510M793 512L794 513L793 512M785.333 516.667L785.667 517.333L785.333 516.667z"/>
<path style="fill:#638aa4; stroke:none;" d="M787 516L788 517L787 516z"/>
<path style="fill:#bfc2c5; stroke:none;" d="M2189 517L2190 518L2189 517M783 518L784 519L783 518M775 523L776 524L775 523M769 527L770 528L769 527M2450 527L2451 528L2450 527M766 529L767 530L766 529M762 531L763 532L762 531M761 532L762 533L761 532M2212 534L2213 535L2212 534M752 538L753 539L752 538z"/>
<path style="fill:#638aa4; stroke:none;" d="M751 539L752 540L751 539z"/>
<path style="fill:#2066b8; stroke:none;" d="M1053 540L1053 1977L1489 1977L1489 1415L1580 1415C1597.23 1415 1615.87 1412.99 1632 1420.31C1661.83 1433.85 1683.47 1461.93 1701.72 1488C1718.76 1512.35 1734.87 1536.64 1748.78 1563C1803.19 1666.11 1857.22 1769.43 1912.69 1872C1926.34 1897.24 1939.23 1922.9 1953.14 1948C1957.69 1956.21 1961.58 1970.18 1968.64 1976.4C1974.46 1981.53 1994.43 1978 2002 1978L2094 1978C2216.35 1978 2338.61 1977 2461 1977C2454.28 1955.77 2436.94 1935.31 2425.85 1916C2398.65 1868.63 2370.19 1821.91 2342.2 1775C2302.1 1707.8 2261.71 1640.68 2222.42 1573C2202.93 1539.41 2183.28 1505.74 2162.44 1473C2150.95 1454.96 2141.72 1436.78 2126.83 1421.04C2093.47 1385.78 2045.69 1367.27 2001 1351.31C1984.14 1345.29 1965.73 1336.62 1948 1334C1958.41 1330.89 1970.25 1330.52 1981 1328.58C1998.89 1325.35 2016.56 1320.68 2034 1315.58C2106.55 1294.35 2177.76 1255.44 2228.83 1199C2297.49 1123.11 2325 1025.59 2325 925C2325 851.972 2309.56 779.586 2270.57 717C2236.03 661.543 2183.5 618.563 2125 590.259C2068.09 562.723 2005.77 547.143 1943 541.17C1914.93 538.499 1886.2 540 1858 540L1715 540L1053 540z"/>
<path style="fill:#638aa4; stroke:none;" d="M748 541L749 542L748 541z"/>
<path style="fill:#bfc2c5; stroke:none;" d="M746 542L747 543L746 542M745 543L746 544L745 543z"/>
<path style="fill:#adafb3; stroke:none;" d="M94 545L95 546L94 545z"/>
<path style="fill:#bfc2c5; stroke:none;" d="M732 552L733 553L732 552M2234 552L2235 553L2234 552M729 554L730 555L729 554z"/>
<path style="fill:#638aa4; stroke:none;" d="M2467 555L2468 556L2467 555z"/>
<path style="fill:#bfc2c5; stroke:none;" d="M725 557L726 558L725 557M721 560L722 561L721 560M2243 560L2244 561L2243 560M717 563L718 564L717 563M713 566L714 567L713 566M2475 569L2476 570L2475 569M708 570L709 571L708 570z"/>
<path style="fill:#638aa4; stroke:none;" d="M2476 571L2477 572L2476 571z"/>
<path style="fill:#bfc2c5; stroke:none;" d="M704 572L705 573L704 572M2258 574L2259 575L2258 574M2259 575L2260 576L2259 575M699 577L700 578L699 577M2265 581L2266 582L2265 581M2266 582L2267 583L2266 582M2267 583L2268 584L2267 583z"/>
<path style="fill:#638aa4; stroke:none;" d="M2268 584L2269 585L2268 584z"/>
<path style="fill:#bfc2c5; stroke:none;" d="M688 586L689 587L688 586M2484 586L2485 587L2484 586M686 587L687 588L686 587M2485 588L2486 589L2485 588M684 589L685 590L684 589z"/>
<path style="fill:#638aa4; stroke:none;" d="M2486 590L2487 591L2486 590z"/>
<path style="fill:#bfc2c5; stroke:none;" d="M682 591L683 592L682 591z"/>
<path style="fill:#638aa4; stroke:none;" d="M2487 592L2488 593L2487 592M2488 594L2489 595L2488 594z"/>
<path style="fill:#bfc2c5; stroke:none;" d="M675.667 596.333L676.333 596.667L675.667 596.333z"/>
<path style="fill:#638aa4; stroke:none;" d="M2489 596L2490 597L2489 596M674 598L675 599L674 598z"/>
<path style="fill:#bfc2c5; stroke:none;" d="M2490 598L2491 599L2490 598M672 599L673 600L672 599M2282 599L2283 600L2282 599M669 602L670 603L669 602M668 603L669 604L668 603M667 604L668 605L667 604M665 606L666 607L665 606M663.667 607.333L664.333 607.667L663.667 607.333z"/>
<path style="fill:#638aa4; stroke:none;" d="M2289 607L2290 608L2289 607z"/>
<path style="fill:#adafb3; stroke:none;" d="M59 611L60 612L59 611z"/>
<path style="fill:#bfc2c5; stroke:none;" d="M656 614L657 615L656 614z"/>
<path style="fill:#638aa4; stroke:none;" d="M2295 614L2296 615L2295 614z"/>
<path style="fill:#bfc2c5; stroke:none;" d="M2498 615L2499 616L2498 615M654 616L655 617L654 616z"/>
<path style="fill:#638aa4; stroke:none;" d="M2299 619L2300 620L2299 619z"/>
<path style="fill:#bfc2c5; stroke:none;" d="M649 621L650 622L649 621M648 622L649 623L648 622z"/>
<path style="fill:#638aa4; stroke:none;" d="M647 623L648 624L647 623z"/>
<path style="fill:#bfc2c5; stroke:none;" d="M646 624L647 625L646 624M2502 624L2503 625L2502 624M644 625L645 626L644 625M642 628L643 629L642 628M2306 628L2307 629L2306 628z"/>
<path style="fill:#adafb3; stroke:none;" d="M51 629L52 630L51 629z"/>
<path style="fill:#638aa4; stroke:none;" d="M641 629L642 630L641 629M640 630L641 631L640 630M639 631L640 632L639 631z"/>
<path style="fill:#bfc2c5; stroke:none;" d="M2505 631L2506 632L2505 631M638 632L639 633L638 632z"/>
<path style="fill:#638aa4; stroke:none;" d="M2309 632L2310 633L2309 632z"/>
<path style="fill:#bfc2c5; stroke:none;" d="M637 633L638 634L637 633M636 634L637 635L636 634z"/>
<path style="fill:#638aa4; stroke:none;" d="M2312 636L2313 637L2312 636z"/>
<path style="fill:#bfc2c5; stroke:none;" d="M632 638L633 639L632 638z"/>
<path style="fill:#638aa4; stroke:none;" d="M2317 643L2318 644L2317 643z"/>
<path style="fill:#bfc2c5; stroke:none;" d="M626 644L627 645L626 644M623 647L624 648L623 647M622 649L623 650L622 649M621 650L622 651L621 650z"/>
<path style="fill:#638aa4; stroke:none;" d="M2513 651L2514 652L2513 651z"/>
<path style="fill:#bfc2c5; stroke:none;" d="M619 652L620 653L619 652M613 659L614 660L613 659M612 660L613 661L612 660M611 661L612 662L611 661z"/>
<path style="fill:#638aa4; stroke:none;" d="M2329 661L2330 662L2329 661M38 662L39 663L38 662z"/>
<path style="fill:#bfc2c5; stroke:none;" d="M610 662L611 663L610 662z"/>
<path style="fill:#adafb3; stroke:none;" d="M37 665L38 666L37 665z"/>
<path style="fill:#bfc2c5; stroke:none;" d="M606 667L607 668L606 667z"/>
<path style="fill:#638aa4; stroke:none;" d="M2334 669L2335 670L2334 669z"/>
<path style="fill:#bfc2c5; stroke:none;" d="M603 671L604 672L603 671M2521 673L2522 674L2521 673M599 675L600 676L599 675z"/>
<path style="fill:#638aa4; stroke:none;" d="M599 676L600 677L599 676z"/>
<path style="fill:#bfc2c5; stroke:none;" d="M2522 676L2523 677L2522 676M598 677L599 678L598 677M2523 679L2524 680L2523 679M2524 682L2525 683L2524 682z"/>
<path style="fill:#adafb3; stroke:none;" d="M29 689L30 690L29 689z"/>
<path style="fill:#bfc2c5; stroke:none;" d="M589 689L590 690L589 689M2347 692L2348 693L2347 692z"/>
<path style="fill:#638aa4; stroke:none;" d="M2527 692L2528 693L2527 692M2528 695L2529 696L2528 695z"/>
<path style="fill:#adafb3; stroke:none;" d="M26 699L27 700L26 699z"/>
<path style="fill:#638aa4; stroke:none;" d="M581 700L582 701L581 700z"/>
<path style="fill:#bfc2c5; stroke:none;" d="M580 701L581 702L580 701M578 704L579 705L578 704z"/>
<path style="fill:#adafb3; stroke:none;" d="M24 706L25 707L24 706z"/>
<path style="fill:#638aa4; stroke:none;" d="M2532 709L2533 710L2532 709M2357 712L2358 713L2357 712z"/>
<path style="fill:#adafb3; stroke:none;" d="M21 717L22 718L21 717z"/>
<path style="fill:#bfc2c5; stroke:none;" d="M565 724L566 725L565 724M562 729L563 730L562 729z"/>
<path style="fill:#638aa4; stroke:none;" d="M2538 733L2539 734L2538 733M2367 735L2368 736L2367 735z"/>
<path style="fill:#bfc2c5; stroke:none;" d="M558 736L559 737L558 736M556 739L557 740L556 739z"/>
<path style="fill:#638aa4; stroke:none;" d="M2369 740L2370 741L2369 740z"/>
<path style="fill:#bfc2c5; stroke:none;" d="M555 741L556 742L555 741M554 743L555 744L554 743z"/>
<path style="fill:#638aa4; stroke:none;" d="M2372 748L2373 749L2372 748z"/>
<path style="fill:#bfc2c5; stroke:none;" d="M550 750L551 751L550 750z"/>
<path style="fill:#638aa4; stroke:none;" d="M2543 757L2544 758L2543 757z"/>
<path style="fill:#bfc2c5; stroke:none;" d="M546 758L547 759L546 758M545 760L546 761L545 760M544 762L545 763L544 762M541 768L542 769L541 768z"/>
<path style="fill:#638aa4; stroke:none;" d="M10 769L11 770L10 769z"/>
<path style="fill:#bfc2c5; stroke:none;" d="M540 770L541 771L540 770z"/>
<path style="fill:#638aa4; stroke:none;" d="M2381 775L2382 776L2381 775M2383 782L2384 783L2383 782z"/>
<path style="fill:#bfc2c5; stroke:none;" d="M534 784L535 785L534 784z"/>
<path style="fill:#638aa4; stroke:none;" d="M2388 801L2389 802L2388 801M5 807L6 808L5 807M2550 807L2551 808L2550 807z"/>
<path style="fill:#bfc2c5; stroke:none;" d="M524 810L525 811L524 810z"/>
<path style="fill:#638aa4; stroke:none;" d="M2390 810L2391 811L2390 810z"/>
<path style="fill:#bfc2c5; stroke:none;" d="M522 816L523 817L522 816z"/>
<path style="fill:#638aa4; stroke:none;" d="M2393 825L2394 826L2393 825z"/>
<path style="fill:#bfc2c5; stroke:none;" d="M519 826L520 827L519 826z"/>
<path style="fill:#638aa4; stroke:none;" d="M3 834L4 835L3 834M2397 849L2398 850L2397 849z"/>
<path style="fill:#010101; stroke:none;" d="M1493 853L1493 1096L1694 1096C1735.82 1096 1778.59 1099.74 1817 1079.89C1895.46 1039.34 1899.46 908.737 1820 866.889C1784.65 848.268 1742.49 853 1704 853L1493 853z"/>
<path style="fill:#bfc2c5; stroke:none;" d="M2398 857L2399 858L2398 857M2399 866L2400 867L2399 866M508 876L509 877L508 876M507 883L508 884L507 883z"/>
<path style="fill:#638aa4; stroke:none;" d="M2552 890L2553 891L2552 890M506 892L507 893L506 892M1854 895L1855 896L1854 895z"/>
<path style="fill:#bfc2c5; stroke:none;" d="M2552 897L2553 898L2552 897M505 904L506 905L505 904z"/>
<path style="fill:#638aa4; stroke:none;" d="M2551 911L2552 912L2551 911M2550 919L2551 920L2550 919z"/>
<path style="fill:#adafb3; stroke:none;" d="M5 921L6 922L5 921z"/>
<path style="fill:#638aa4; stroke:none;" d="M1870 926L1871 927L1870 926M2549.33 928.667L2549.67 929.333L2549.33 928.667M2548 934L2549 935L2548 934M2548 936L2549 937L2548 936M2548 939L2549 940L2548 939M1874 942L1875 943L1874 942M2547.33 943.667L2547.67 944.333L2547.33 943.667z"/>
<path style="fill:#adafb3; stroke:none;" d="M8 946L9 947L8 946z"/>
<path style="fill:#638aa4; stroke:none;" d="M2547 946L2548 947L2547 946z"/>
<path style="fill:#bfc2c5; stroke:none;" d="M2402 947L2403 948L2402 947M2547 947L2548 948L2547 947z"/>
<path style="fill:#638aa4; stroke:none;" d="M2546 949L2547 950L2546 949z"/>
<path style="fill:#adafb3; stroke:none;" d="M9 952L10 953L9 952z"/>
<path style="fill:#638aa4; stroke:none;" d="M2545 957L2546 958L2545 957M2545 959L2546 960L2545 959z"/>
<path style="fill:#bfc2c5; stroke:none;" d="M2545 960L2546 961L2545 960z"/>
<path style="fill:#adafb3; stroke:none;" d="M11.3333 964.667L11.6667 965.333L11.3333 964.667z"/>
<path style="fill:#638aa4; stroke:none;" d="M2544.33 964.667L2544.67 965.333L2544.33 964.667z"/>
<path style="fill:#bfc2c5; stroke:none;" d="M2401 967L2402 968L2401 967z"/>
<path style="fill:#638aa4; stroke:none;" d="M2401 970L2402 971L2401 970M2543 970C2502.25 1001.41 2457.75 1029.36 2415 1058C2400.51 1067.71 2374.39 1078.85 2377 1100L2375 1106L2372 1113L2368 1118C2366.63 1127.32 2360.77 1136.56 2356.78 1145C2347.45 1164.75 2336.73 1183.75 2324.81 1202.04C2286.13 1261.37 2233.39 1309.32 2175 1348.67C2149.91 1365.58 2123.09 1382.48 2095 1394L2126.83 1422.01L2165 1478C2201.66 1460.86 2235.8 1429.98 2267 1404.61C2360.25 1328.8 2444 1233.07 2494.18 1123C2509.39 1089.63 2523.1 1055.57 2532.37 1020C2535.13 1009.43 2542.69 992.796 2540 982L2543 970z"/>
<path style="fill:#adafb3; stroke:none;" d="M2542 973L2543 974L2542 973M2542 975L2543 976L2542 975M2541 978L2542 979L2541 978z"/>
<path style="fill:#bfc2c5; stroke:none;" d="M508 980L509 981L508 980z"/>
<path style="fill:#638aa4; stroke:none;" d="M2400 980L2401 981L2400 980M2400.33 982.667L2400.67 983.333L2400.33 982.667z"/>
<path style="fill:#adafb3; stroke:none;" d="M2540 982L2541 983L2540 982z"/>
<path style="fill:#638aa4; stroke:none;" d="M509 986L510 987L509 986z"/>
<path style="fill:#adafb3; stroke:none;" d="M2539 989L2540 990L2539 989z"/>
<path style="fill:#638aa4; stroke:none;" d="M2399.33 990.667L2399.67 991.333L2399.33 990.667z"/>
<path style="fill:#adafb3; stroke:none;" d="M17 992L18 993L17 992M2538 993L2539 994L2538 993M17 994L18 995L17 994z"/>
<path style="fill:#638aa4; stroke:none;" d="M511 997L512 998L511 997M18 999L19 1000L18 999M2398 999L2398 1002L2399 1002L2398 999z"/>
<path style="fill:#adafb3; stroke:none;" d="M2537 999L2538 1000L2537 999M19 1001L20 1002L19 1001z"/>
<path style="fill:#638aa4; stroke:none;" d="M512 1002L513 1003L512 1002z"/>
<path style="fill:#adafb3; stroke:none;" d="M19 1003L20 1004L19 1003M20 1006L21 1007L20 1006z"/>
<path style="fill:#638aa4; stroke:none;" d="M2397 1006L2398 1007L2397 1006z"/>
<path style="fill:#adafb3; stroke:none;" d="M21.3333 1010.67L21.6667 1011.33L21.3333 1010.67M22.3333 1014.67L22.6667 1015.33L22.3333 1014.67z"/>
<path style="fill:#638aa4; stroke:none;" d="M2396.33 1014.67L2396.67 1015.33L2396.33 1014.67z"/>
<path style="fill:#adafb3; stroke:none;" d="M2533 1015L2534 1016L2533 1015M23 1018L24 1019L23 1018M2532 1019L2533 1020L2532 1019M24 1020L25 1021L24 1020z"/>
<path style="fill:#638aa4; stroke:none;" d="M2395 1024L2396 1025L2395 1024z"/>
<path style="fill:#adafb3; stroke:none;" d="M25 1025L26 1026L25 1025z"/>
<path style="fill:#638aa4; stroke:none;" d="M2394.33 1025.67L2394.67 1026.33L2394.33 1025.67M518 1026L519 1027L518 1026z"/>
<path style="fill:#adafb3; stroke:none;" d="M2530 1026L2531 1027L2530 1026M26.3333 1027.67L26.6667 1028.33L26.3333 1027.67z"/>
<path style="fill:#638aa4; stroke:none;" d="M2394.33 1028.67L2394.67 1029.33L2394.33 1028.67z"/>
<path style="fill:#adafb3; stroke:none;" d="M2529 1029L2530 1030L2529 1029z"/>
<path style="fill:#638aa4; stroke:none;" d="M2393 1031L2394 1032L2393 1031z"/>
<path style="fill:#bfc2c5; stroke:none;" d="M27 1032L28 1033L27 1032M520 1033L521 1034L520 1033z"/>
<path style="fill:#adafb3; stroke:none;" d="M2528 1033L2529 1034L2528 1033z"/>
<path style="fill:#bfc2c5; stroke:none;" d="M28 1036L29 1037L28 1036M521 1036L522 1037L521 1036M2392 1036L2393 1037L2392 1036z"/>
<path style="fill:#638aa4; stroke:none;" d="M2392 1038L2393 1039L2392 1038M2391 1041L2392 1042L2391 1041z"/>
<path style="fill:#bfc2c5; stroke:none;" d="M30 1042L31 1043L30 1042z"/>
<path style="fill:#638aa4; stroke:none;" d="M2390 1046L2391 1047L2390 1046z"/>
<path style="fill:#adafb3; stroke:none;" d="M2524 1046L2525 1047L2524 1046z"/>
<path style="fill:#bfc2c5; stroke:none;" d="M33 1050L34 1051L33 1050M2389 1050L2390 1051L2389 1050z"/>
<path style="fill:#638aa4; stroke:none;" d="M526 1051L527 1052L526 1051z"/>
<path style="fill:#adafb3; stroke:none;" d="M2522 1052L2523 1053L2522 1052M2521 1055L2522 1056L2521 1055z"/>
<path style="fill:#638aa4; stroke:none;" d="M2388 1056L2389 1057L2388 1056z"/>
<path style="fill:#bfc2c5; stroke:none;" d="M36.3333 1059.67L36.6667 1060.33L36.3333 1059.67z"/>
<path style="fill:#638aa4; stroke:none;" d="M2387.33 1059.67L2387.67 1060.33L2387.33 1059.67z"/>
<path style="fill:#bfc2c5; stroke:none;" d="M37 1063L38 1064L37 1063z"/>
<path style="fill:#638aa4; stroke:none;" d="M2386.33 1063.67L2386.67 1064.33L2386.33 1063.67z"/>
<path style="fill:#bfc2c5; stroke:none;" d="M38 1066L39 1067L38 1066z"/>
<path style="fill:#adafb3; stroke:none;" d="M2517 1066L2518 1067L2517 1066z"/>
<path style="fill:#638aa4; stroke:none;" d="M2385 1067L2386 1068L2385 1067M2384 1072L2385 1073L2384 1072z"/>
<path style="fill:#bfc2c5; stroke:none;" d="M535 1074L536 1075L535 1074M2382 1077L2383 1078L2382 1077z"/>
<path style="fill:#638aa4; stroke:none;" d="M2383 1077L2384 1078L2383 1077z"/>
<path style="fill:#adafb3; stroke:none;" d="M2513 1077L2514 1078L2513 1077z"/>
<path style="fill:#638aa4; stroke:none;" d="M2382 1078L2383 1079L2382 1078M44 1082L45 1083L44 1082z"/>
<path style="fill:#bfc2c5; stroke:none;" d="M539 1083L540 1084L539 1083z"/>
<path style="fill:#adafb3; stroke:none;" d="M2380 1086L2381 1087L2380 1086z"/>
<path style="fill:#bfc2c5; stroke:none;" d="M46 1087L47 1088L46 1087z"/>
<path style="fill:#adafb3; stroke:none;" d="M2379 1087L2380 1088L2379 1087M2509 1087L2510 1088L2509 1087z"/>
<path style="fill:#bfc2c5; stroke:none;" d="M2378 1090L2379 1091L2378 1090z"/>
<path style="fill:#adafb3; stroke:none;" d="M2378 1091L2379 1092L2378 1091z"/>
<path style="fill:#bfc2c5; stroke:none;" d="M48 1092L49 1093L48 1092z"/>
<path style="fill:#adafb3; stroke:none;" d="M2507 1092L2508 1093L2507 1092M2377 1094L2378 1095L2377 1094M2506 1094L2507 1095L2506 1094z"/>
<path style="fill:#bfc2c5; stroke:none;" d="M2375 1099L2376 1100L2375 1099z"/>
<path style="fill:#adafb3; stroke:none;" d="M2376 1099L2377 1100L2376 1099z"/>
<path style="fill:#bfc2c5; stroke:none;" d="M52 1101L53 1102L52 1101z"/>
<path style="fill:#adafb3; stroke:none;" d="M2502 1104L2503 1105L2502 1104M2373.67 1105.33L2374.33 1105.67L2373.67 1105.33z"/>
<path style="fill:#bfc2c5; stroke:none;" d="M54 1106L55 1107L54 1106z"/>
<path style="fill:#adafb3; stroke:none;" d="M2501 1106L2502 1107L2501 1106z"/>
<path style="fill:#bfc2c5; stroke:none;" d="M551 1107L552 1108L551 1107z"/>
<path style="fill:#adafb3; stroke:none;" d="M2372 1108L2373 1109L2372 1108M2500 1108L2501 1109L2500 1108z"/>
<path style="fill:#bfc2c5; stroke:none;" d="M552 1109L553 1110L552 1109z"/>
<path style="fill:#adafb3; stroke:none;" d="M2371 1112L2372 1113L2371 1112M2498 1113L2499 1114L2498 1113z"/>
<path style="fill:#638aa4; stroke:none;" d="M58 1115L59 1116L58 1115z"/>
<path style="fill:#adafb3; stroke:none;" d="M2369 1116L2369 1119L2370 1119L2369 1116z"/>
<path style="fill:#bfc2c5; stroke:none;" d="M59 1117L60 1118L59 1117M557 1118L558 1119L557 1118M60 1119L61 1120L60 1119z"/>
<path style="fill:#adafb3; stroke:none;" d="M2368 1119L2369 1120L2368 1119M2495 1119L2496 1120L2495 1119z"/>
<path style="fill:#bfc2c5; stroke:none;" d="M560 1123L561 1124L560 1123M2492 1126L2493 1127L2492 1126z"/>
<path style="fill:#adafb3; stroke:none;" d="M2364 1128L2365 1129L2364 1128M2362.33 1133.67L2362.67 1134.33L2362.33 1133.67M2360 1137L2361 1138L2360 1137z"/>
<path style="fill:#bfc2c5; stroke:none;" d="M69 1138L70 1139L69 1138z"/>
<path style="fill:#adafb3; stroke:none;" d="M2485 1140L2486 1141L2485 1140M2484 1142L2485 1143L2484 1142z"/>
<path style="fill:#bfc2c5; stroke:none;" d="M2482 1146L2483 1147L2482 1146z"/>
<path style="fill:#adafb3; stroke:none;" d="M2354 1150L2355 1151L2354 1150M2353 1152L2354 1153L2353 1152M2352 1154L2353 1155L2352 1154M2477 1155L2478 1156L2477 1155z"/>
<path style="fill:#bfc2c5; stroke:none;" d="M79 1157L80 1158L79 1157M582 1157L583 1158L582 1157z"/>
<path style="fill:#adafb3; stroke:none;" d="M2476 1157L2477 1158L2476 1157M2475 1159L2476 1160L2475 1159M2472 1164L2473 1165L2472 1164z"/>
<path style="fill:#638aa4; stroke:none;" d="M84 1166L85 1167L84 1166z"/>
<path style="fill:#adafb3; stroke:none;" d="M2471 1166L2472 1167L2471 1166z"/>
<path style="fill:#bfc2c5; stroke:none;" d="M590 1168L591 1169L590 1168z"/>
<path style="fill:#638aa4; stroke:none;" d="M88 1173L89 1174L88 1173z"/>
<path style="fill:#adafb3; stroke:none;" d="M2342 1173L2343 1174L2342 1173M2467 1173L2468 1174L2467 1173M2341 1175L2342 1176L2341 1175z"/>
<path style="fill:#bfc2c5; stroke:none;" d="M2466 1175L2467 1176L2466 1175z"/>
<path style="fill:#638aa4; stroke:none;" d="M597 1177L598 1178L597 1177z"/>
<path style="fill:#adafb3; stroke:none;" d="M2463 1180L2464 1181L2463 1180z"/>
<path style="fill:#bfc2c5; stroke:none;" d="M601 1182L602 1183L601 1182z"/>
<path style="fill:#adafb3; stroke:none;" d="M2460 1185L2461 1186L2460 1185z"/>
<path style="fill:#bfc2c5; stroke:none;" d="M2457 1190L2458 1191L2457 1190M100 1193L101 1194L100 1193M610 1193L611 1194L610 1193M2330 1193L2331 1194L2330 1193z"/>
<path style="fill:#adafb3; stroke:none;" d="M2455 1193L2456 1194L2455 1193M2329 1195L2330 1196L2329 1195M2328 1197L2329 1198L2328 1197z"/>
<path style="fill:#bfc2c5; stroke:none;" d="M2452 1198L2453 1199L2452 1198M617 1201L618 1202L617 1201z"/>
<path style="fill:#adafb3; stroke:none;" d="M2450 1201L2451 1202L2450 1201z"/>
<path style="fill:#638aa4; stroke:none;" d="M107 1204L108 1205L107 1204z"/>
<path style="fill:#adafb3; stroke:none;" d="M2323 1204L2324 1205L2323 1204z"/>
<path style="fill:#bfc2c5; stroke:none;" d="M109 1207L110 1208L109 1207z"/>
<path style="fill:#adafb3; stroke:none;" d="M2321 1207L2322 1208L2321 1207z"/>
<path style="fill:#bfc2c5; stroke:none;" d="M111 1210L112 1211L111 1210z"/>
<path style="fill:#adafb3; stroke:none;" d="M2444 1210L2445 1211L2444 1210M2442 1213L2443 1214L2442 1213z"/>
<path style="fill:#bfc2c5; stroke:none;" d="M2316 1214L2317 1215L2316 1214z"/>
<path style="fill:#638aa4; stroke:none;" d="M117 1219L118 1220L117 1219z"/>
<path style="fill:#adafb3; stroke:none;" d="M2438 1219L2439 1220L2438 1219z"/>
<path style="fill:#bfc2c5; stroke:none;" d="M119 1222L120 1223L119 1222z"/>
<path style="fill:#adafb3; stroke:none;" d="M2308 1225L2309 1226L2308 1225M2434 1225L2435 1226L2434 1225z"/>
<path style="fill:#bfc2c5; stroke:none;" d="M126 1232L127 1233L126 1232z"/>
<path style="fill:#adafb3; stroke:none;" d="M2303 1232L2304 1233L2303 1232M2302 1233L2303 1234L2302 1233z"/>
<path style="fill:#bfc2c5; stroke:none;" d="M2301 1234L2302 1235L2301 1234M2427 1235L2428 1236L2427 1235z"/>
<path style="fill:#adafb3; stroke:none;" d="M2426 1236L2427 1237L2426 1236M2298 1238L2299 1239L2298 1238z"/>
<path style="fill:#bfc2c5; stroke:none;" d="M2297 1239L2298 1240L2297 1239z"/>
<path style="fill:#adafb3; stroke:none;" d="M2424 1239L2425 1240L2424 1239z"/>
<path style="fill:#638aa4; stroke:none;" d="M134 1243L135 1244L134 1243z"/>
<path style="fill:#bfc2c5; stroke:none;" d="M659 1244L660 1245L659 1244z"/>
<path style="fill:#adafb3; stroke:none;" d="M2293 1244L2294 1245L2293 1244z"/>
<path style="fill:#638aa4; stroke:none;" d="M137 1247L138 1248L137 1247z"/>
<path style="fill:#bfc2c5; stroke:none;" d="M140 1251L141 1252L140 1251z"/>
<path style="fill:#adafb3; stroke:none;" d="M2287 1251L2288 1252L2287 1251z"/>
<path style="fill:#bfc2c5; stroke:none;" d="M671 1255L672 1256L671 1255M144 1256L145 1257L144 1256z"/>
<path style="fill:#adafb3; stroke:none;" d="M2281 1258L2282 1259L2281 1258M2280 1259L2281 1260L2280 1259z"/>
<path style="fill:#bfc2c5; stroke:none;" d="M147 1260L148 1261L147 1260z"/>
<path style="fill:#adafb3; stroke:none;" d="M2279 1260L2280 1261L2279 1260z"/>
<path style="fill:#638aa4; stroke:none;" d="M678 1261L679 1262L678 1261z"/>
<path style="fill:#adafb3; stroke:none;" d="M2405 1264L2406 1265L2405 1264z"/>
<path style="fill:#bfc2c5; stroke:none;" d="M685 1267L686 1268L685 1267z"/>
<path style="fill:#adafb3; stroke:none;" d="M2401 1269L2402 1270L2401 1269M2269 1271L2270 1272L2269 1271z"/>
<path style="fill:#bfc2c5; stroke:none;" d="M691 1272L692 1273L691 1272z"/>
<path style="fill:#adafb3; stroke:none;" d="M2268 1272L2269 1273L2268 1272z"/>
<path style="fill:#bfc2c5; stroke:none;" d="M2397 1274L2398 1275L2397 1274z"/>
<path style="fill:#adafb3; stroke:none;" d="M2264 1276L2265 1277L2264 1276M2263 1277L2264 1278L2263 1277M2262 1278L2263 1279L2262 1278M2261 1279L2262 1280L2261 1279M2260 1280L2261 1281L2260 1280M2392 1280L2393 1281L2392 1280M2258 1282L2259 1283L2258 1282z"/>
<path style="fill:#bfc2c5; stroke:none;" d="M2387 1286L2388 1287L2387 1286z"/>
<path style="fill:#638aa4; stroke:none;" d="M169 1287L170 1288L169 1287z"/>
<path style="fill:#adafb3; stroke:none;" d="M2386 1287L2387 1288L2386 1287M2246 1293L2247 1294L2246 1293z"/>
<path style="fill:#bfc2c5; stroke:none;" d="M2381 1293L2382 1294L2381 1293M175 1294L176 1295L175 1294z"/>
<path style="fill:#adafb3; stroke:none;" d="M2245 1294L2246 1295L2245 1294M2244 1295L2245 1296L2244 1295M2379 1295L2380 1296L2379 1295z"/>
<path style="fill:#bfc2c5; stroke:none;" d="M730 1302L731 1303L730 1302M737 1307L738 1308L737 1307M192 1313L193 1314L192 1313z"/>
<path style="fill:#adafb3; stroke:none;" d="M2223 1313L2224 1314L2223 1313M2361 1315L2362 1316L2361 1315M2218 1317L2219 1318L2218 1317z"/>
<path style="fill:#bfc2c5; stroke:none;" d="M756 1320L757 1321L756 1320M2214 1320L2215 1321L2214 1320z"/>
<path style="fill:#adafb3; stroke:none;" d="M2213 1321L2214 1322L2213 1321M2205 1327L2206 1328L2205 1327z"/>
<path style="fill:#638aa4; stroke:none;" d="M770 1329L771 1330L770 1329z"/>
<path style="fill:#adafb3; stroke:none;" d="M2201 1330L2202 1331L2201 1330z"/>
<path style="fill:#bfc2c5; stroke:none;" d="M2347 1330L2348 1331L2347 1330M2346 1331L2347 1332L2346 1331z"/>
<path style="fill:#adafb3; stroke:none;" d="M2197 1333L2198 1334L2197 1333M2344 1333L2345 1334L2344 1333z"/>
<path style="fill:#638aa4; stroke:none;" d="M778 1334L779 1335L778 1334z"/>
<path style="fill:#adafb3; stroke:none;" d="M2196 1334L2197 1335L2196 1334z"/>
<path style="fill:#bfc2c5; stroke:none;" d="M213 1335L214 1336L213 1335z"/>
<path style="fill:#adafb3; stroke:none;" d="M2342 1335L2343 1336L2342 1335z"/>
<path style="fill:#bfc2c5; stroke:none;" d="M214 1336L215 1337L214 1336z"/>
<path style="fill:#adafb3; stroke:none;" d="M2193 1336L2194 1337L2193 1336M2341 1336L2342 1337L2341 1336z"/>
<path style="fill:#bfc2c5; stroke:none;" d="M215 1337L216 1338L215 1337z"/>
<path style="fill:#adafb3; stroke:none;" d="M2340 1337L2341 1338L2340 1337z"/>
<path style="fill:#bfc2c5; stroke:none;" d="M216 1338L217 1339L216 1338z"/>
<path style="fill:#adafb3; stroke:none;" d="M2190 1338L2191 1339L2190 1338M2339 1338L2340 1339L2339 1338z"/>
<path style="fill:#bfc2c5; stroke:none;" d="M217 1339L218 1340L217 1339M218 1340L219 1341L218 1340M2187 1340L2188 1341L2187 1340M219 1341L220 1342L219 1341z"/>
<path style="fill:#adafb3; stroke:none;" d="M2186 1341L2187 1342L2186 1341z"/>
<path style="fill:#bfc2c5; stroke:none;" d="M220 1342L221 1343L220 1342M221 1343L222 1344L221 1343z"/>
<path style="fill:#adafb3; stroke:none;" d="M2334 1343L2335 1344L2334 1343z"/>
<path style="fill:#bfc2c5; stroke:none;" d="M2329 1348L2330 1349L2329 1348z"/>
<path style="fill:#adafb3; stroke:none;" d="M2168 1353L2169 1354L2168 1353M2165 1355L2166 1356L2165 1355z"/>
<path style="fill:#bfc2c5; stroke:none;" d="M2163 1356L2164 1357L2163 1356M819 1358L820 1359L819 1358z"/>
<path style="fill:#adafb3; stroke:none;" d="M2157 1360L2158 1361L2157 1360z"/>
<path style="fill:#bfc2c5; stroke:none;" d="M2155 1361L2156 1362L2155 1361z"/>
<path style="fill:#adafb3; stroke:none;" d="M2152 1363L2153 1364L2152 1363z"/>
<path style="fill:#bfc2c5; stroke:none;" d="M243 1364L244 1365L243 1364M830 1364L831 1365L830 1364M832 1365L833 1366L832 1365z"/>
<path style="fill:#adafb3; stroke:none;" d="M2147 1366L2148 1367L2147 1366z"/>
<path style="fill:#bfc2c5; stroke:none;" d="M2310 1366L2311 1367L2310 1366M2145 1367L2146 1368L2145 1367z"/>
<path style="fill:#adafb3; stroke:none;" d="M2135 1373L2136 1374L2135 1373z"/>
<path style="fill:#bfc2c5; stroke:none;" d="M255 1375L256 1376L255 1375z"/>
<path style="fill:#adafb3; stroke:none;" d="M2300 1375L2301 1376L2300 1375z"/>
<path style="fill:#bfc2c5; stroke:none;" d="M2299 1376L2300 1377L2299 1376z"/>
<path style="fill:#adafb3; stroke:none;" d="M2126 1378L2127 1379L2126 1378M2292 1382L2293 1383L2292 1382M2291 1383L2292 1384L2291 1383M2111 1386L2112 1387L2111 1386M2109 1387L2110 1388L2109 1387z"/>
<path style="fill:#bfc2c5; stroke:none;" d="M878 1388L879 1389L878 1388z"/>
<path style="fill:#638aa4; stroke:none;" d="M271 1389L272 1390L271 1389z"/>
<path style="fill:#bfc2c5; stroke:none;" d="M2105 1389L2106 1390L2105 1389M2103 1390L2104 1391L2103 1390M2283 1390L2284 1391L2283 1390M278 1395L279 1396L278 1395M893 1395L894 1396L893 1395z"/>
<path style="fill:#adafb3; stroke:none;" d="M2277 1395L2278 1396L2277 1395z"/>
<path style="fill:#bfc2c5; stroke:none;" d="M284 1400L285 1401L284 1400M909 1402L910 1403L909 1402M916 1405L917 1406L916 1405z"/>
<path style="fill:#adafb3; stroke:none;" d="M2265 1405L2266 1406L2265 1405z"/>
<path style="fill:#bfc2c5; stroke:none;" d="M295 1409L296 1410L295 1409M928 1410L929 1411L928 1410z"/>
<path style="fill:#638aa4; stroke:none;" d="M300 1413L301 1414L300 1413z"/>
<path style="fill:#010101; stroke:none;" d="M1489 1415L1489 1512L1622 1506.91L1709 1499C1704.65 1487.53 1694.58 1476.56 1687 1467C1672.14 1448.26 1652.97 1427.78 1630 1419.07C1613.99 1412.99 1595.79 1415 1579 1415L1489 1415z"/>
<path style="fill:#bfc2c5; stroke:none;" d="M943 1416L944 1417L943 1416M305 1417L306 1418L305 1417M948 1418L949 1419L948 1418M953 1420L954 1421L953 1420z"/>
<path style="fill:#adafb3; stroke:none;" d="M2246 1420L2247 1421L2246 1420z"/>
<path style="fill:#bfc2c5; stroke:none;" d="M2245 1421L2246 1422L2245 1421M314 1424L315 1425L314 1424M969 1426L970 1427L969 1426M322 1430L323 1431L322 1430M983 1431L984 1432L983 1431M326 1433L327 1434L326 1433z"/>
<path style="fill:#adafb3; stroke:none;" d="M2229 1433L2230 1434L2229 1433z"/>
<path style="fill:#bfc2c5; stroke:none;" d="M330 1436L331 1437L330 1436M338 1442L339 1443L338 1442z"/>
<path style="fill:#adafb3; stroke:none;" d="M2217 1442L2218 1443L2217 1442z"/>
<path style="fill:#bfc2c5; stroke:none;" d="M1025 1445L1026 1446L1025 1445M345 1447L346 1448L345 1447M352 1452L353 1453L352 1452z"/>
<path style="fill:#638aa4; stroke:none;" d="M1053 1454L1053 1706L1054 1706L1054 1528L1054 1477L1053 1454z"/>
<path style="fill:#bfc2c5; stroke:none;" d="M2199 1455L2200 1456L2199 1455z"/>
<path style="fill:#adafb3; stroke:none;" d="M2196 1457L2197 1458L2196 1457z"/>
<path style="fill:#bfc2c5; stroke:none;" d="M362 1459L363 1460L362 1459M365 1461L366 1462L365 1461M2180 1468L2181 1469L2180 1468M2177 1470L2178 1471L2177 1470z"/>
<path style="fill:#adafb3; stroke:none;" d="M2169 1475L2170 1476L2169 1475M2166 1477L2167 1478L2166 1477z"/>
<path style="fill:#bfc2c5; stroke:none;" d="M392 1479L393 1480L392 1479z"/>
<path style="fill:#638aa4; stroke:none;" d="M395 1481L396 1482L395 1481z"/>
<path style="fill:#bfc2c5; stroke:none;" d="M403 1486L404 1487L403 1486M411 1491L412 1492L411 1491M419 1496L420 1497L419 1496M424 1499L425 1500L424 1499z"/>
<path style="fill:#adafb3; stroke:none;" d="M1489 1512L1489 1692L1659 1575.97L1728 1529C1725.87 1521.75 1715.77 1501.39 1708 1499.4C1702.35 1497.95 1694.77 1500.64 1689 1500.96C1671.33 1501.95 1653.65 1504.38 1636 1505.84C1587.09 1509.9 1538 1509.9 1489 1512z"/>
<path style="fill:#638aa4; stroke:none;" d="M1705 1499L1706 1500L1705 1499M1710 1499L1711 1500L1710 1499M1693 1500L1694 1501L1693 1500M1699.67 1500.33L1700.33 1500.67L1699.67 1500.33M1711.33 1500.67L1711.67 1501.33L1711.33 1500.67M429 1502L430 1503L429 1502M1673.67 1502.33L1674.33 1502.67L1673.67 1502.33M1712 1502L1713 1503L1712 1502M1663 1503L1664 1504L1663 1503M1713.33 1503.67L1713.67 1504.33L1713.33 1503.67M1651 1504L1652 1505L1651 1504z"/>
<path style="fill:#bfc2c5; stroke:none;" d="M434 1505L435 1506L434 1505z"/>
<path style="fill:#638aa4; stroke:none;" d="M1638 1505L1639 1506L1638 1505M1641.67 1505.33L1642.33 1505.67L1641.67 1505.33M1714 1505L1715 1506L1714 1505M1625.67 1506.33L1626.33 1506.67L1625.67 1506.33M1715.33 1506.67L1715.67 1507.33L1715.33 1506.67z"/>
<path style="fill:#bfc2c5; stroke:none;" d="M439 1508L440 1509L439 1508z"/>
<path style="fill:#638aa4; stroke:none;" d="M1592 1508L1593 1509L1592 1508M1716 1508L1717 1509L1716 1508M1573 1509L1574 1510L1573 1509M1547 1510L1548 1511L1547 1510M1717 1510L1718 1511L1717 1510M1718 1511L1719 1512L1718 1511M1488 1512L1488 1707C1559.19 1700.24 1630.37 1687.82 1700 1671.35C1731.08 1663.99 1761.78 1653.46 1793 1647L1773.26 1608L1729 1527L1563 1640.97L1489 1692L1489 1566L1489 1530L1488 1512M1719 1513L1720 1514L1719 1513M1720 1514L1721 1515L1720 1514z"/>
<path style="fill:#bfc2c5; stroke:none;" d="M453 1516L454 1517L453 1516z"/>
<path style="fill:#638aa4; stroke:none;" d="M1721 1516L1722 1517L1721 1516M1722.33 1517.67L1722.67 1518.33L1722.33 1517.67M1723 1519L1724 1520L1723 1519M1724.33 1520.67L1724.67 1521.33L1724.33 1520.67M1725 1522L1726 1523L1725 1522M1726 1524L1727 1525L1726 1524z"/>
<path style="fill:#bfc2c5; stroke:none;" d="M469 1525L470 1526L469 1525z"/>
<path style="fill:#638aa4; stroke:none;" d="M1727.33 1525.67L1727.67 1526.33L1727.33 1525.67z"/>
<path style="fill:#bfc2c5; stroke:none;" d="M482 1532L483 1533L482 1532M503 1543L504 1544L503 1543z"/>
<path style="fill:#638aa4; stroke:none;" d="M505 1544L506 1545L505 1544M507 1545L508 1546L507 1545M523 1553L524 1554L523 1553M525 1554L526 1555L525 1554z"/>
<path style="fill:#bfc2c5; stroke:none;" d="M527 1555L528 1556L527 1555z"/>
<path style="fill:#638aa4; stroke:none;" d="M548 1565L549 1566L548 1565M563 1572L564 1573L563 1572M572 1576L573 1577L572 1576M595 1586L596 1587L595 1586z"/>
<path style="fill:#bfc2c5; stroke:none;" d="M614 1594L615 1595L614 1594z"/>
<path style="fill:#638aa4; stroke:none;" d="M619 1596L620 1597L619 1596M647 1607L648 1608L647 1607M655 1610L656 1611L655 1610M674 1617L675 1618L674 1617M691 1623L692 1624L691 1623M730 1636L731 1637L730 1636M746 1641L747 1642L746 1641M766 1647L767 1648L766 1647M773 1649L774 1650L773 1649z"/>
<path style="fill:#bfc2c5; stroke:none;" d="M1779 1650L1780 1651L1779 1650z"/>
<path style="fill:#638aa4; stroke:none;" d="M798 1656L799 1657L798 1656z"/>
<path style="fill:#bfc2c5; stroke:none;" d="M1723 1665L1724 1666L1723 1665M1719 1666L1720 1667L1719 1666M1715 1667L1716 1668L1715 1667z"/>
<path style="fill:#adafb3; stroke:none;" d="M1710 1668L1711 1669L1710 1668M1706 1669L1707 1670L1706 1669M1680 1675L1681 1676L1680 1675z"/>
<path style="fill:#bfc2c5; stroke:none;" d="M1676 1676L1677 1677L1676 1676z"/>
<path style="fill:#638aa4; stroke:none;" d="M884 1677L885 1678L884 1677z"/>
<path style="fill:#adafb3; stroke:none;" d="M1637 1684L1638 1685L1637 1684M1632 1685L1633 1686L1632 1685M1616 1688L1617 1689L1616 1688M1610 1689L1611 1690L1610 1689M1605 1690L1606 1691L1605 1690M1594 1692L1595 1693L1594 1692M1587.67 1693.33L1588.33 1693.67L1587.67 1693.33z"/>
<path style="fill:#bfc2c5; stroke:none;" d="M1576 1695L1577 1696L1576 1695z"/>
<path style="fill:#638aa4; stroke:none;" d="M992 1697L993 1698L992 1697z"/>
<path style="fill:#adafb3; stroke:none;" d="M1563 1697L1564 1698L1563 1697z"/>
<path style="fill:#638aa4; stroke:none;" d="M1006 1699L1007 1700L1006 1699z"/>
<path style="fill:#adafb3; stroke:none;" d="M1544 1699L1545 1700L1544 1699z"/>
<path style="fill:#bfc2c5; stroke:none;" d="M1543 1700L1544 1701L1543 1700z"/>
<path style="fill:#adafb3; stroke:none;" d="M1522 1702L1523 1703L1522 1702M1525 1702L1526 1703L1525 1702M1528 1702L1529 1703L1528 1702M1517 1703L1518 1704L1517 1703z"/>
<path style="fill:#638aa4; stroke:none;" d="M1043 1704L1044 1705L1043 1704z"/>
<path style="fill:#adafb3; stroke:none;" d="M1509 1704L1510 1705L1509 1704M1512 1704L1513 1705L1512 1704M1500 1705L1501 1706L1500 1705M1489 1706L1490 1707L1489 1706M1492 1706L1493 1707L1492 1706M1495.67 1706.33L1496.33 1706.67L1495.67 1706.33z"/>
</svg>
